STARTFONT 2.1
FONT -FontForge-Open Sans-Book-R-Normal-Sans--50-360-100-100-P-265-ISO10646-1
SIZE 36 100 100
FONTBOUNDINGBOX 49 50 -4 -12
COMMENT "Generated by fontforge, http://fontforge.sourceforge.net"
COMMENT "Copyright 2020 The Open Sans Project Authors (https://github.com/googlefonts/opensans)"
STARTPROPERTIES 40
FOUNDRY "FontForge"
FAMILY_NAME "Open Sans"
WEIGHT_NAME "Book"
SLANT "R"
SETWIDTH_NAME "Normal"
ADD_STYLE_NAME "Sans"
PIXEL_SIZE 50
POINT_SIZE 360
RESOLUTION_X 100
RESOLUTION_Y 100
SPACING "P"
AVERAGE_WIDTH 265
CHARSET_REGISTRY "ISO10646"
CHARSET_ENCODING "1"
FONTNAME_REGISTRY ""
CHARSET_COLLECTIONS "ISO10646-1"
FONT_NAME "OpenSans-Regular"
FACE_NAME "Open Sans Regular"
COPYRIGHT "Copyright 2020 The Open Sans Project Authors (https://github.com/googlefonts/opensans)"
FONT_VERSION "3.000"
FONT_ASCENT 40
FONT_DESCENT 10
UNDERLINE_POSITION -3
UNDERLINE_THICKNESS 2
X_HEIGHT 26
CAP_HEIGHT 35
RAW_ASCENT 799
RAW_DESCENT 200
NORM_SPACE 13
RELATIVE_WEIGHT 40
RELATIVE_SETWIDTH 50
SUPERSCRIPT_X 0
SUPERSCRIPT_Y 17
SUPERSCRIPT_SIZE 30
SUBSCRIPT_X 0
SUBSCRIPT_Y 3
SUBSCRIPT_SIZE 30
FIGURE_WIDTH 29
AVG_LOWERCASE_WIDTH 262
AVG_UPPERCASE_WIDTH 314
ENDPROPERTIES
CHARS 95
STARTCHAR space
ENCODING 32
SWIDTH 259 0
DWIDTH 13 0
BBX 1 1 0 0
BITMAP
00
ENDCHAR
STARTCHAR exclam
ENCODING 33
SWIDTH 264 0
DWIDTH 13 0
BBX 5 37 4 -1
BITMAP
F8
F8
F8
F8
F8
F8
F8
F8
78
78
78
78
78
70
70
70
70
70
70
70
70
70
70
70
70
70
00
00
00
00
00
F8
F8
F8
F8
F8
70
ENDCHAR
STARTCHAR quotedbl
ENCODING 34
SWIDTH 398 0
DWIDTH 20 0
BBX 14 13 3 23
BITMAP
F87C
F87C
F878
7078
7038
7038
7038
7038
7038
7038
7038
7038
7038
ENDCHAR
STARTCHAR numbersign
ENCODING 35
SWIDTH 645 0
DWIDTH 32 0
BBX 30 36 1 0
BITMAP
001E0380
001E0380
001C0380
001C0380
001C0780
003C0780
003C0700
00380700
00380700
00380700
00380F00
3FFFFFFC
3FFFFFFC
3FFFFFFC
00700E00
00701E00
00F01C00
00F01C00
00E01C00
00E03C00
00E03C00
01E03800
FFFFFFF0
FFFFFFF0
FFFFFFF0
01C07800
03C07000
03C07000
03807000
03807000
0380F000
0380F000
0780E000
0700E000
0700E000
0701E000
ENDCHAR
STARTCHAR dollar
ENCODING 36
SWIDTH 571 0
DWIDTH 29 0
BBX 23 41 3 -3
BITMAP
003800
003800
003800
003800
03FF80
0FFFF8
1FFFF8
3FFFF8
7C3830
783800
F03800
F03800
F03800
F03800
F83800
7C3800
7E3800
3FF800
1FF800
07FF00
01FFC0
003FF0
003FF8
0038FC
00387C
00383C
00383E
00381E
00383C
00383C
00387C
E038F8
FFFFF8
FFFFE0
FFFFC0
0FFE00
003800
003800
003800
003800
003800
ENDCHAR
STARTCHAR percent
ENCODING 37
SWIDTH 826 0
DWIDTH 41 0
BBX 37 38 2 -1
BITMAP
07C0000000
1FF0003C00
3FF8003C00
3C3C007800
781C007000
781C00F000
701E00E000
700E01E000
700E01C000
F00E03C000
F00E038000
F00E078000
700E0F0000
700E0E0000
700E1E0000
701E1C0000
781C3C1F00
381C387FC0
3C3C78FFE0
1FF870F1E0
0FF0F1E0F0
07C1E1C070
0001E1C070
0003C3C078
000383C078
000783C078
000703C078
000F03C078
000E03C078
001E03C078
001C03C078
003C01C070
007801C070
007001E0F0
00F000F1E0
00E000FFE0
01E0007FC0
0000001F00
ENDCHAR
STARTCHAR ampersand
ENCODING 38
SWIDTH 728 0
DWIDTH 36 0
BBX 33 38 3 -1
BITMAP
007F000000
03FFC00000
07FFE00000
0FE7F00000
0F81F00000
1F00F00000
1E00780000
1E00780000
1E00780000
1E00F80000
1F00F00000
0F01F00000
0F83E00000
07C7E00000
03CFC00000
03FF000000
01FE000000
01FC000000
07FC000000
0FFE001E00
1F1F001E00
3E0F803C00
7C07C03C00
7803E03C00
F801F07800
F000F87800
F0007CF000
F0003FF000
F0001FE000
F0000FE000
F0000FC000
F8001FE000
7C003FF000
7E00FEF800
3FFFF87E00
1FFFF03F00
0FFFC01F80
01FE000000
ENDCHAR
STARTCHAR quotesingle
ENCODING 39
SWIDTH 219 0
DWIDTH 11 0
BBX 5 13 3 23
BITMAP
F8
F8
F8
70
70
70
70
70
70
70
70
70
70
ENDCHAR
STARTCHAR parenleft
ENCODING 40
SWIDTH 294 0
DWIDTH 15 0
BBX 11 44 2 -8
BITMAP
01E0
03C0
07C0
0780
0F00
0F00
1E00
1E00
3E00
3C00
3C00
7C00
7800
7800
7800
7800
F800
F000
F000
F000
F000
F000
F000
F000
F000
F000
F000
F000
F800
7800
7800
7800
7C00
3C00
3C00
3E00
1E00
1E00
0F00
0F00
0780
0780
03C0
01E0
ENDCHAR
STARTCHAR parenright
ENCODING 41
SWIDTH 294 0
DWIDTH 15 0
BBX 11 44 2 -8
BITMAP
F000
7800
7800
3C00
3C00
1E00
1E00
0F00
0F00
0780
0780
0780
07C0
03C0
03C0
03C0
03C0
03C0
03E0
01E0
01E0
01E0
01E0
01E0
01E0
03E0
03E0
03C0
03C0
03C0
03C0
07C0
0780
0780
0780
0F00
0F00
1F00
1E00
3E00
3C00
7800
7800
F000
ENDCHAR
STARTCHAR asterisk
ENCODING 42
SWIDTH 550 0
DWIDTH 28 0
BBX 23 22 2 16
BITMAP
007C00
003C00
003C00
003C00
003800
003800
003800
60380E
7E387E
FFFFFE
FFFFFE
07FFE0
007C00
00FE00
01EF00
01E780
03C780
07C3C0
0F83E0
0F81F0
0701E0
010080
ENDCHAR
STARTCHAR plus
ENCODING 43
SWIDTH 571 0
DWIDTH 29 0
BBX 23 24 3 6
BITMAP
003800
003800
003800
003800
003800
003800
003800
003800
003800
003800
003800
FFFFFE
FFFFFE
FFFFFE
003800
003800
003800
003800
003800
003800
003800
003800
003800
003800
ENDCHAR
STARTCHAR comma
ENCODING 44
SWIDTH 258 0
DWIDTH 13 0
BBX 7 12 2 -6
BITMAP
3E
3E
3E
3C
3C
3C
78
78
78
70
F0
E0
ENDCHAR
STARTCHAR hyphen
ENCODING 45
SWIDTH 321 0
DWIDTH 16 0
BBX 12 4 2 12
BITMAP
FFF0
FFF0
FFF0
FFF0
ENDCHAR
STARTCHAR period
ENCODING 46
SWIDTH 262 0
DWIDTH 13 0
BBX 5 6 4 -1
BITMAP
F8
F8
F8
F8
F8
70
ENDCHAR
STARTCHAR slash
ENCODING 47
SWIDTH 366 0
DWIDTH 18 0
BBX 17 36 1 0
BITMAP
000780
000F00
000F00
000F00
001E00
001E00
003C00
003C00
003C00
007800
007800
007800
00F000
00F000
01E000
01E000
01E000
03C000
03C000
03C000
078000
078000
0F8000
0F0000
0F0000
1E0000
1E0000
1E0000
3C0000
3C0000
3C0000
780000
780000
F00000
F00000
F00000
ENDCHAR
STARTCHAR zero
ENCODING 48
SWIDTH 571 0
DWIDTH 29 0
BBX 23 38 3 -1
BITMAP
00FE00
07FF80
0FFFC0
1FFFE0
1F01F0
3E00F0
7C0078
780078
78003C
F8003C
F0003C
F0003C
F0001E
F0001E
F0001E
F0001E
F0001E
F0001E
F0001E
F0001E
F0001E
F0001E
F0001E
F0001E
F0001E
F0001E
F0003C
F0003C
78003C
78003C
780078
3C0078
3E00F8
1F01F0
1FFFE0
0FFFC0
03FF80
00FE00
ENDCHAR
STARTCHAR one
ENCODING 49
SWIDTH 571 0
DWIDTH 29 0
BBX 13 36 5 0
BITMAP
0078
01F8
03F8
0FF8
1FF8
3E78
FC78
F878
F078
4078
0078
0078
0078
0078
0078
0078
0078
0078
0078
0078
0078
0078
0078
0078
0078
0078
0078
0078
0078
0078
0078
0078
0078
0078
0078
0078
ENDCHAR
STARTCHAR two
ENCODING 50
SWIDTH 571 0
DWIDTH 29 0
BBX 24 37 2 0
BITMAP
00FF00
07FFC0
1FFFE0
3FFFF0
7E00F8
38007C
10007C
00003C
00003C
00003C
00003C
00003C
00003C
00003C
00007C
000078
0000F8
0001F0
0001E0
0003E0
0007C0
000F80
001F00
003E00
007C00
00F800
01F000
03E000
07C000
0F8000
1F0000
3E0000
3C0000
7FFFFF
FFFFFF
FFFFFF
FFFFFF
ENDCHAR
STARTCHAR three
ENCODING 51
SWIDTH 571 0
DWIDTH 29 0
BBX 24 38 2 -1
BITMAP
01FF00
0FFFC0
3FFFF0
7FEFF8
7C00F8
30007C
00003C
00003C
00003E
00003E
00003C
00003C
00003C
00007C
0000F8
0003F0
003FE0
03FF80
03FF80
03FFF0
0003F8
0000FC
00003E
00001E
00001E
00001F
00001F
00001F
00001F
00001E
00001E
00003E
80007C
E000FC
FF8FF8
FFFFF0
7FFFC0
07FE00
ENDCHAR
STARTCHAR four
ENCODING 52
SWIDTH 571 0
DWIDTH 29 0
BBX 27 36 1 0
BITMAP
00007800
0000F800
0001F800
0001F800
0003B800
0007B800
00077800
000F7800
001E7800
003C7800
003C7800
00787800
00F07800
00F07800
01E07800
03C07800
03C07800
07807800
0F007800
0E007800
1E007800
3C007800
38007800
78007800
FFFFFFE0
FFFFFFE0
FFFFFFE0
FFFFFFE0
00007800
00007800
00007800
00007800
00007800
00007800
00007800
00007800
ENDCHAR
STARTCHAR five
ENCODING 53
SWIDTH 571 0
DWIDTH 29 0
BBX 23 37 3 -1
BITMAP
3FFFF0
3FFFF0
3FFFF0
3FFFF0
3C0000
3C0000
3C0000
3C0000
3C0000
380000
380000
380000
780000
780000
7BFE00
7FFF80
7FFFE0
3FBFF0
0001F8
0000FC
00007C
00003C
00003E
00003E
00003E
00001E
00003E
00003C
00003C
00003C
00007C
8000F8
E003F0
FFBFE0
FFFFC0
7FFF80
0FFC00
ENDCHAR
STARTCHAR six
ENCODING 54
SWIDTH 571 0
DWIDTH 29 0
BBX 23 38 3 -1
BITMAP
000FF0
007FF0
01FFF0
03FC30
07C000
0F8000
1F0000
1E0000
3C0000
3C0000
780000
780000
780000
700000
F07F00
F1FFE0
F3FFF0
F7C3F8
FE00F8
FC007C
F8003C
F8001E
F0001E
F0001E
F0001E
F0001E
F0001E
F0001E
78001E
78001E
78003C
3C003C
3E007C
1F00F8
0FE7F0
07FFE0
03FFC0
00FE00
ENDCHAR
STARTCHAR seven
ENCODING 55
SWIDTH 571 0
DWIDTH 29 0
BBX 24 36 2 0
BITMAP
FFFFFF
FFFFFF
FFFFFF
FFFFFF
00001E
00001E
00003E
00003C
00003C
000078
000078
0000F0
0000F0
0001E0
0001E0
0003E0
0003C0
0007C0
000780
000780
000F00
000F00
001F00
001E00
003E00
003C00
007C00
007800
00F800
00F000
00F000
01F000
01E000
03E000
03C000
07C000
ENDCHAR
STARTCHAR eight
ENCODING 56
SWIDTH 571 0
DWIDTH 29 0
BBX 23 38 3 -1
BITMAP
01FE00
07FFC0
1FFFE0
3FC7F0
3E00F8
7C0078
78007C
78003C
78003C
78003C
78003C
780078
7C0078
3E00F0
1F01F0
1FC7E0
07FF80
03FF00
03FF00
07FFC0
1F8FE0
3E03F0
7C00F8
78007C
F0003C
F0003E
F0001E
F0001E
F0001E
F0001E
F0001E
F0003C
F8007C
7C00F8
3F87F8
1FFFF0
0FFFC0
01FE00
ENDCHAR
STARTCHAR nine
ENCODING 57
SWIDTH 571 0
DWIDTH 29 0
BBX 23 38 3 -1
BITMAP
01FC00
07FF80
0FFFC0
1FDFE0
3E01F0
7C00F0
780078
F00078
F0003C
F0003C
F0003C
F0001E
F0001E
F0001E
F0001E
F0003E
F0003E
F8007E
78007E
7C01FE
3F07DE
1FFF9E
0FFF1E
03F83C
00003C
00003C
00003C
000078
000078
000078
0000F0
0001F0
0003E0
000FC0
38FF80
3FFF00
3FFC00
3FE000
ENDCHAR
STARTCHAR colon
ENCODING 58
SWIDTH 262 0
DWIDTH 13 0
BBX 5 29 4 -1
BITMAP
70
F8
F8
F8
F8
F8
00
00
00
00
00
00
00
00
00
00
00
00
00
00
00
00
00
F8
F8
F8
F8
F8
70
ENDCHAR
STARTCHAR semicolon
ENCODING 59
SWIDTH 262 0
DWIDTH 13 0
BBX 7 34 2 -6
BITMAP
1C
3E
3E
3E
3E
3E
00
00
00
00
00
00
00
00
00
00
00
00
00
00
00
00
3E
3E
3C
3C
7C
78
78
78
F0
F0
E0
E0
ENDCHAR
STARTCHAR less
ENCODING 60
SWIDTH 571 0
DWIDTH 29 0
BBX 23 24 3 6
BITMAP
000002
00000E
00003E
0000FE
0003F8
000FE0
003F80
00FE00
03F000
0FC000
7F0000
FC0000
F00000
FC0000
7F8000
0FE000
03FC00
00FF00
003FC0
0007F8
0001FE
00007E
00000E
000002
ENDCHAR
STARTCHAR equal
ENCODING 61
SWIDTH 571 0
DWIDTH 29 0
BBX 23 13 3 11
BITMAP
FFFFFE
FFFFFE
FFFFFE
000000
000000
000000
000000
000000
000000
000000
FFFFFE
FFFFFE
FFFFFE
ENDCHAR
STARTCHAR greater
ENCODING 62
SWIDTH 571 0
DWIDTH 29 0
BBX 23 24 3 6
BITMAP
800000
E00000
F80000
FE0000
7F8000
0FE000
03F800
00FE00
003F80
000FE0
0003F8
0000FE
00001E
0000FE
0003F8
001FE0
007F80
01FC00
0FF000
3FC000
FF0000
F80000
E00000
800000
ENDCHAR
STARTCHAR question
ENCODING 63
SWIDTH 431 0
DWIDTH 22 0
BBX 19 38 1 -1
BITMAP
07F800
3FFE00
FFFF80
FFFFC0
7007C0
0003E0
0001E0
0001E0
0001E0
0001E0
0001E0
0001E0
0003E0
0003C0
0007C0
000F80
001F00
003E00
007C00
00F800
01E000
01E000
03C000
03C000
038000
038000
038000
000000
000000
000000
000000
000000
03C000
07E000
07E000
07E000
07C000
03C000
ENDCHAR
STARTCHAR at
ENCODING 64
SWIDTH 896 0
DWIDTH 45 0
BBX 39 42 3 -5
BITMAP
0000FFC000
0007FFF800
003FFFFE00
007F807F00
00F8000F80
03E00003C0
07C00001E0
07800000F0
0F00000070
1E00000078
1C007F8038
3C01FFF03C
3803FFF01C
7807C0F01C
700F00F01E
701E00F01E
F01E00F00E
F01C00F00E
E03C00F00E
E03C00F00E
E03C00F00E
E03C00F00E
E03C00F01E
E03C00E01C
E03C01E01C
E03C01E01C
F01C01F03C
F01E03F038
F01F077870
700FFF3FF0
7807FE1FE0
7801F80F80
3C00000000
3C00000000
1E00000000
0F00000000
0F80000000
07E0001800
01FE01F800
00FFFFF800
003FFFF000
0003FF0000
ENDCHAR
STARTCHAR A
ENCODING 65
SWIDTH 632 0
DWIDTH 32 0
BBX 31 36 0 0
BITMAP
0003C000
0007C000
0007E000
0007E000
000FE000
000EF000
001EF000
001E7800
001E7800
003C7800
003C3C00
007C3C00
00783E00
00781E00
00F01E00
00F00F00
00F00F00
01E00F00
01E00780
03E00780
03C007C0
03FFFFC0
07FFFFC0
07FFFFE0
0FFFFFE0
0F0001F0
0F0001F0
1F0000F0
1E0000F8
1E000078
3C000078
3C00007C
7C00003C
7800003E
7800001E
F000001E
ENDCHAR
STARTCHAR B
ENCODING 66
SWIDTH 645 0
DWIDTH 32 0
BBX 25 36 5 0
BITMAP
FFFF0000
FFFFE000
FFFFF800
FFFFFC00
F000FC00
F0003E00
F0003E00
F0001E00
F0001E00
F0001E00
F0001E00
F0001E00
F0003E00
F0003C00
F000F800
F01FF000
FFFFC000
FFFFC000
FFFFF800
F001FC00
F0003E00
F0001F00
F0000F00
F0000F00
F0000F80
F0000F80
F0000F80
F0000F00
F0000F00
F0001F00
F0003F00
F0007E00
FFFFFC00
FFFFF800
FFFFE000
FFFF8000
ENDCHAR
STARTCHAR C
ENCODING 67
SWIDTH 629 0
DWIDTH 32 0
BBX 27 38 3 -1
BITMAP
0007FC00
003FFFC0
00FFFFE0
03FFFFC0
07F003C0
0FC00000
0F800000
1F000000
3E000000
3E000000
7C000000
7C000000
78000000
78000000
F8000000
F8000000
F8000000
F0000000
F0000000
F0000000
F0000000
F8000000
F8000000
F8000000
78000000
78000000
7C000000
7C000000
3C000000
3E000000
1F000000
1F800000
0FC00000
07F000C0
03FFFFC0
01FFFFC0
007FFFC0
000FFC00
ENDCHAR
STARTCHAR D
ENCODING 68
SWIDTH 725 0
DWIDTH 36 0
BBX 28 36 5 0
BITMAP
FFFF0000
FFFFE000
FFFFF800
FFFFFC00
F000FF00
F0003F00
F0000F80
F00007C0
F00007C0
F00003E0
F00001E0
F00001E0
F00001F0
F00001F0
F00000F0
F00000F0
F00000F0
F00000F0
F00000F0
F00000F0
F00000F0
F00000F0
F00001F0
F00001F0
F00001E0
F00003E0
F00003E0
F00007C0
F0000FC0
F0001F80
F0003F00
F000FE00
FFFFFC00
FFFFF000
FFFFC000
FFFE0000
ENDCHAR
STARTCHAR E
ENCODING 69
SWIDTH 555 0
DWIDTH 28 0
BBX 20 36 5 0
BITMAP
FFFFF0
FFFFF0
FFFFF0
FFFFF0
F00000
F00000
F00000
F00000
F00000
F00000
F00000
F00000
F00000
F00000
F00000
FFFFE0
FFFFE0
FFFFE0
FFFFE0
F00000
F00000
F00000
F00000
F00000
F00000
F00000
F00000
F00000
F00000
F00000
F00000
F00000
FFFFF0
FFFFF0
FFFFF0
FFFFF0
ENDCHAR
STARTCHAR F
ENCODING 70
SWIDTH 516 0
DWIDTH 26 0
BBX 20 36 5 0
BITMAP
FFFFF0
FFFFF0
FFFFF0
FFFFF0
F00000
F00000
F00000
F00000
F00000
F00000
F00000
F00000
F00000
F00000
F00000
F00000
F00000
FFFFE0
FFFFE0
FFFFE0
FFFFE0
F00000
F00000
F00000
F00000
F00000
F00000
F00000
F00000
F00000
F00000
F00000
F00000
F00000
F00000
F00000
ENDCHAR
STARTCHAR G
ENCODING 71
SWIDTH 727 0
DWIDTH 36 0
BBX 30 38 3 -1
BITMAP
0003FF00
003FFFF0
00FFFFF8
01FFFFF8
03F800F0
07E00010
0F800000
1F000000
3E000000
3E000000
3C000000
7C000000
78000000
78000000
F8000000
F8000000
F0000000
F0000000
F0007FFC
F0007FFC
F0007FFC
F0007FFC
F800007C
F800007C
7800007C
7800007C
7C00007C
7C00007C
3C00007C
3E00007C
1F00007C
1F80007C
0FC0007C
07F0007C
03FFFFFC
01FFFFFC
007FFFF0
000FFF00
ENDCHAR
STARTCHAR H
ENCODING 72
SWIDTH 737 0
DWIDTH 37 0
BBX 27 36 5 0
BITMAP
F00001E0
F00001E0
F00001E0
F00001E0
F00001E0
F00001E0
F00001E0
F00001E0
F00001E0
F00001E0
F00001E0
F00001E0
F00001E0
F00001E0
F00001E0
FFFFFFE0
FFFFFFE0
FFFFFFE0
FFFFFFE0
F00001E0
F00001E0
F00001E0
F00001E0
F00001E0
F00001E0
F00001E0
F00001E0
F00001E0
F00001E0
F00001E0
F00001E0
F00001E0
F00001E0
F00001E0
F00001E0
F00001E0
ENDCHAR
STARTCHAR I
ENCODING 73
SWIDTH 279 0
DWIDTH 14 0
BBX 4 36 5 0
BITMAP
F0
F0
F0
F0
F0
F0
F0
F0
F0
F0
F0
F0
F0
F0
F0
F0
F0
F0
F0
F0
F0
F0
F0
F0
F0
F0
F0
F0
F0
F0
F0
F0
F0
F0
F0
F0
ENDCHAR
STARTCHAR J
ENCODING 74
SWIDTH 268 0
DWIDTH 13 0
BBX 13 45 -4 -9
BITMAP
0078
0078
0078
0078
0078
0078
0078
0078
0078
0078
0078
0078
0078
0078
0078
0078
0078
0078
0078
0078
0078
0078
0078
0078
0078
0078
0078
0078
0078
0078
0078
0078
0078
0078
0078
0078
0078
00F8
00F0
00F0
01F0
FFE0
FFC0
FF80
FE00
ENDCHAR
STARTCHAR K
ENCODING 75
SWIDTH 612 0
DWIDTH 31 0
BBX 25 36 5 0
BITMAP
F0000F80
F0001F00
F0003E00
F0007C00
F000F800
F001F000
F003E000
F007C000
F0078000
F00F0000
F01F0000
F03E0000
F07C0000
F0F80000
F1F00000
F3E00000
F7F00000
FFF00000
FFF80000
FE7C0000
FC7C0000
F83E0000
F01F0000
F00F8000
F00F8000
F007C000
F003E000
F003E000
F001F000
F000F800
F0007C00
F0007C00
F0003E00
F0001F00
F0000F80
F0000F80
ENDCHAR
STARTCHAR L
ENCODING 76
SWIDTH 521 0
DWIDTH 26 0
BBX 20 36 5 0
BITMAP
F00000
F00000
F00000
F00000
F00000
F00000
F00000
F00000
F00000
F00000
F00000
F00000
F00000
F00000
F00000
F00000
F00000
F00000
F00000
F00000
F00000
F00000
F00000
F00000
F00000
F00000
F00000
F00000
F00000
F00000
F00000
F00000
FFFFF0
FFFFF0
FFFFF0
FFFFF0
ENDCHAR
STARTCHAR M
ENCODING 77
SWIDTH 899 0
DWIDTH 45 0
BBX 35 36 5 0
BITMAP
FC000007E0
FE00000FE0
FE00000FE0
FE00000FE0
EF00001FE0
EF00001FE0
FF00003DE0
F780003DE0
F7800039E0
F3C00079E0
F3C00079E0
F3C00071E0
F1E000F1E0
F1E000F1E0
F1F001E1E0
F0F001E1E0
F0F001C1E0
F07803C1E0
F07803C1E0
F0780381E0
F03C0781E0
F03C0781E0
F01E0F01E0
F01E0F01E0
F01E0E01E0
F00F1E01E0
F00F1E01E0
F00F3C01E0
F007BC01E0
F007B801E0
F003F801E0
F003F801E0
F003F001E0
F001F001E0
F001F001E0
F001E001E0
ENDCHAR
STARTCHAR N
ENCODING 78
SWIDTH 752 0
DWIDTH 38 0
BBX 28 36 5 0
BITMAP
F80000F0
FC0000F0
FC0000F0
FE0000F0
FF0000F0
FF0000F0
EF8000F0
E78000F0
F7C000F0
F3E000F0
F1E000F0
F1F000F0
F0F800F0
F07800F0
F07C00F0
F03E00F0
F03E00F0
F01F00F0
F00F80F0
F00F80F0
F007C0F0
F003C0F0
F003E0F0
F001F0F0
F000F0F0
F000F8F0
F0007CF0
F0003CF0
F0003EF0
F0001FF0
F0001FF0
F0000FF0
F00007F0
F00007F0
F00003F0
F00001F0
ENDCHAR
STARTCHAR O
ENCODING 79
SWIDTH 777 0
DWIDTH 39 0
BBX 33 38 3 -1
BITMAP
000FF80000
007FFF0000
01FFFFC000
03FFFFE000
07F007F000
0FC001F800
1F80007C00
1F00007C00
3E00003E00
3C00001E00
7C00001F00
7800001F00
7800000F00
7800000F00
F800000F80
F800000F80
F800000F80
F000000F80
F000000F80
F000000F80
F000000F80
F800000F80
F800000F80
F800000F80
7800000F00
7800000F00
7800001F00
7C00001F00
3C00001E00
3E00003E00
1F00007C00
1F00007C00
0FC001F800
07E003F000
03FFFFE000
01FFFFC000
007FFF0000
000FF80000
ENDCHAR
STARTCHAR P
ENCODING 80
SWIDTH 601 0
DWIDTH 30 0
BBX 22 36 5 0
BITMAP
FFFC00
FFFF80
FFFFE0
FFFFF0
F003F8
F000F8
F0007C
F0003C
F0003C
F0003C
F0003C
F0003C
F0003C
F0003C
F0007C
F0007C
F000F8
F003F0
FFFFE0
FFFFC0
FFFF00
FFF800
F00000
F00000
F00000
F00000
F00000
F00000
F00000
F00000
F00000
F00000
F00000
F00000
F00000
F00000
ENDCHAR
STARTCHAR Q
ENCODING 81
SWIDTH 777 0
DWIDTH 39 0
BBX 33 46 3 -9
BITMAP
000FF80000
007FFF0000
01FFFFC000
03FFFFE000
07F007F000
0FC001F800
1F80007C00
1F00007C00
3E00003E00
3C00001E00
7C00001F00
7800001F00
7800000F00
7800000F00
F800000F80
F800000F80
F800000F80
F000000F80
F000000F80
F000000F80
F000000F80
F800000F80
F800000F80
F800000F80
7800000F00
7800000F00
7800001F00
7C00001F00
3C00001E00
3E00003E00
1F00007C00
1F00007C00
0FC001F800
07E003F000
03FFFFE000
01FFFFC000
007FFF0000
000FFE0000
00003E0000
00001F0000
00000F8000
000007C000
000003E000
000001F000
000001F800
000000FC00
ENDCHAR
STARTCHAR R
ENCODING 82
SWIDTH 617 0
DWIDTH 31 0
BBX 25 36 5 0
BITMAP
FFFE0000
FFFFC000
FFFFE000
FFFFF000
F001F800
F000FC00
F0007C00
F0003C00
F0003C00
F0003C00
F0003C00
F0003C00
F0003C00
F0003C00
F0007C00
F000F800
F001F000
FFFFE000
FFFFC000
FFFF0000
FFFF0000
F00F0000
F00F8000
F0078000
F007C000
F003E000
F001E000
F001F000
F000F000
F000F800
F0007C00
F0003C00
F0003E00
F0001F00
F0001F00
F0000F80
ENDCHAR
STARTCHAR S
ENCODING 83
SWIDTH 548 0
DWIDTH 27 0
BBX 22 38 3 -1
BITMAP
01FF00
07FFF0
1FFFF8
3FFFF8
7E0070
7C0000
F80000
F80000
F00000
F00000
F00000
F00000
F80000
7C0000
7E0000
3F8000
1FE000
0FF800
07FF00
01FF80
003FE0
000FF0
0003F8
0000F8
00007C
00007C
00003C
00003C
00003C
00003C
00007C
000078
0000F8
E003F0
FFFFE0
FFFFC0
FFFF80
1FFC00
ENDCHAR
STARTCHAR T
ENCODING 84
SWIDTH 550 0
DWIDTH 28 0
BBX 27 36 0 0
BITMAP
FFFFFFE0
FFFFFFE0
FFFFFFE0
FFFFFFE0
000F0000
000F0000
000F0000
000F0000
000F0000
000F0000
000F0000
000F0000
000F0000
000F0000
000F0000
000F0000
000F0000
000F0000
000F0000
000F0000
000F0000
000F0000
000F0000
000F0000
000F0000
000F0000
000F0000
000F0000
000F0000
000F0000
000F0000
000F0000
000F0000
000F0000
000F0000
000F0000
ENDCHAR
STARTCHAR U
ENCODING 85
SWIDTH 729 0
DWIDTH 36 0
BBX 27 37 5 -1
BITMAP
F00001E0
F00001E0
F00001E0
F00001E0
F00001E0
F00001E0
F00001E0
F00001E0
F00001E0
F00001E0
F00001E0
F00001E0
F00001E0
F00001E0
F00001E0
F00001E0
F00001E0
F00001E0
F00001E0
F00001E0
F00001E0
F00001E0
F00001E0
F00001E0
F00001E0
F00001E0
F00003E0
F00003C0
F80003C0
780007C0
7C000780
3E000F80
3F003F00
1FFFFE00
0FFFFC00
03FFF000
007FC000
ENDCHAR
STARTCHAR V
ENCODING 86
SWIDTH 596 0
DWIDTH 30 0
BBX 30 36 0 0
BITMAP
F800007C
78000078
78000078
7C0000F8
3C0000F0
3C0001F0
3E0001F0
1E0001E0
1E0003E0
1F0003C0
0F0003C0
0F0007C0
0F800780
07800780
07800F80
03C00F00
03C00F00
03E01F00
01E01E00
01E01E00
01F03E00
00F03C00
00F07C00
00F87800
00787800
0078F800
007CF000
003CF000
003CF000
001DE000
001FE000
001FE000
000FC000
000FC000
000FC000
00078000
ENDCHAR
STARTCHAR W
ENCODING 87
SWIDTH 923 0
DWIDTH 46 0
BBX 44 36 1 0
BITMAP
F0000F0000F0
F0001F8000F0
F8001F8001F0
78001F8001F0
78003F8001E0
78003FC001E0
7C003FC003E0
3C003BC003C0
3C0079E003C0
3C0079E003C0
1E0079E007C0
1E00F0E00780
1E00F0F00780
1E00F0F00780
0F00F0F00F80
0F01E0780F00
0F01E0780F00
0F81E0780F00
0783C03C1F00
0783C03C1E00
0783C03C1E00
07C3C03C1E00
03C7801E3C00
03C7801E3C00
03C7801E3C00
03C7000F3C00
01EF000F7800
01EF000F7800
01EF00077800
01EE00077800
00EE0007F000
00FE0007F000
00FC0003F000
007C0003F000
007C0003E000
007C0001E000
ENDCHAR
STARTCHAR X
ENCODING 88
SWIDTH 577 0
DWIDTH 29 0
BBX 28 36 0 0
BITMAP
7C0001F0
3E0001E0
1E0003C0
1F0007C0
0F000780
07800F00
07C01F00
03C01E00
03E03C00
01E03C00
00F07800
00F8F000
0078F000
003DE000
003FE000
001FC000
000F8000
000F8000
001FC000
001FC000
003DE000
007DF000
0078F000
00F0F800
01F07800
01E03C00
03C03E00
03C01E00
07801F00
0F800F80
0F000780
1E0007C0
3E0003E0
3C0003E0
7C0001F0
F80000F0
ENDCHAR
STARTCHAR Y
ENCODING 89
SWIDTH 559 0
DWIDTH 28 0
BBX 28 36 0 0
BITMAP
F80001F0
780001E0
7C0003E0
3C0003C0
3E0007C0
1E000780
1F000F00
0F000F00
07801E00
07C03E00
03C03C00
03E07C00
01E07800
01F0F800
00F0F000
00F9F000
0079E000
007FE000
003FC000
003F8000
001F8000
000F0000
000F0000
000F0000
000F0000
000F0000
000F0000
000F0000
000F0000
000F0000
000F0000
000F0000
000F0000
000F0000
000F0000
000F0000
ENDCHAR
STARTCHAR Z
ENCODING 90
SWIDTH 572 0
DWIDTH 29 0
BBX 25 36 2 0
BITMAP
7FFFFF00
7FFFFF00
7FFFFF00
7FFFFF00
00001E00
00003E00
00007C00
00007800
0000F800
0001F000
0001E000
0003E000
0007C000
00078000
000F8000
001F0000
001E0000
003E0000
007C0000
00780000
00F80000
01F00000
01E00000
03E00000
07C00000
07800000
0F800000
1F000000
1E000000
3E000000
7C000000
78000000
FFFFFF80
FFFFFF80
FFFFFF80
FFFFFF80
ENDCHAR
STARTCHAR bracketleft
ENCODING 91
SWIDTH 327 0
DWIDTH 16 0
BBX 11 44 4 -8
BITMAP
FFE0
FFE0
FFE0
F000
F000
F000
F000
F000
F000
F000
F000
F000
F000
F000
F000
F000
F000
F000
F000
F000
F000
F000
F000
F000
F000
F000
F000
F000
F000
F000
F000
F000
F000
F000
F000
F000
F000
F000
F000
F000
F000
FFE0
FFE0
FFE0
ENDCHAR
STARTCHAR backslash
ENCODING 92
SWIDTH 366 0
DWIDTH 18 0
BBX 17 36 1 0
BITMAP
F00000
F00000
F00000
780000
780000
3C0000
3C0000
3C0000
1E0000
1E0000
1E0000
0F0000
0F0000
0F8000
078000
078000
03C000
03C000
03C000
01E000
01E000
01E000
00F000
00F000
007800
007800
007800
003C00
003C00
003C00
001E00
001E00
000F00
000F00
000F00
000780
ENDCHAR
STARTCHAR bracketright
ENCODING 93
SWIDTH 327 0
DWIDTH 16 0
BBX 11 44 1 -8
BITMAP
FFE0
FFE0
FFE0
01E0
01E0
01E0
01E0
01E0
01E0
01E0
01E0
01E0
01E0
01E0
01E0
01E0
01E0
01E0
01E0
01E0
01E0
01E0
01E0
01E0
01E0
01E0
01E0
01E0
01E0
01E0
01E0
01E0
01E0
01E0
01E0
01E0
01E0
01E0
01E0
01E0
01E0
FFE0
FFE0
FFE0
ENDCHAR
STARTCHAR asciicircum
ENCODING 94
SWIDTH 571 0
DWIDTH 29 0
BBX 24 23 2 14
BITMAP
003800
003C00
007C00
007E00
007E00
00EF00
00E700
01E780
01C380
03C3C0
0381C0
0781E0
0700E0
0F00F0
0E0070
1E0078
1E0038
1C003C
3C001C
38001E
78000E
70000F
F00007
ENDCHAR
STARTCHAR underscore
ENCODING 95
SWIDTH 437 0
DWIDTH 22 0
BBX 22 3 0 -8
BITMAP
FFFFFC
FFFFFC
FFFFFC
ENDCHAR
STARTCHAR grave
ENCODING 96
SWIDTH 277 0
DWIDTH 14 0
BBX 10 8 2 30
BITMAP
F800
7C00
3C00
3E00
1F00
0F00
0780
01C0
ENDCHAR
STARTCHAR a
ENCODING 97
SWIDTH 555 0
DWIDTH 28 0
BBX 22 29 2 -1
BITMAP
00FF00
07FFC0
1FFFF0
0FC7F0
0C00F8
000078
000078
00007C
00003C
00003C
00003C
00003C
003FFC
03FFFC
0FFFFC
3FC03C
3E003C
7C003C
78003C
F8003C
F8007C
F8007C
F800FC
7800FC
7C03FC
7F0FBC
3FFF3C
1FFE1C
07F800
ENDCHAR
STARTCHAR b
ENCODING 98
SWIDTH 611 0
DWIDTH 31 0
BBX 24 39 4 -1
BITMAP
F00000
F00000
F00000
F00000
F00000
F00000
F00000
F00000
F00000
F00000
F07F00
F1FFC0
F3FFF0
F7E7F8
FF00F8
FE007C
FC003E
F8003E
F8001E
F8001E
F8001F
F0001F
F0000F
F0000F
F0000F
F0000F
F0000F
F0001F
F8001F
F8001E
F8001E
F8003E
FC003C
FC007C
FF00F8
F7E3F8
F3FFF0
E1FFC0
007F00
ENDCHAR
STARTCHAR c
ENCODING 99
SWIDTH 479 0
DWIDTH 24 0
BBX 19 29 3 -1
BITMAP
007F80
03FFE0
0FFFE0
1FFFE0
1F0040
3E0000
7C0000
780000
780000
F80000
F00000
F00000
F00000
F00000
F00000
F00000
F00000
F00000
F00000
F80000
F80000
780000
7C0000
3E0000
3F0020
1FFFE0
0FFFE0
03FFE0
00FF00
ENDCHAR
STARTCHAR d
ENCODING 100
SWIDTH 611 0
DWIDTH 31 0
BBX 23 39 3 -1
BITMAP
00001E
00001E
00001E
00001E
00001E
00001E
00001E
00001E
00001E
00001E
01FC1E
07FF9E
0FFFDE
1FC7FE
3F00FE
3C007E
7C003E
78003E
F8001E
F8001E
F0001E
F0001E
F0001E
F0001E
F0001E
F0001E
F0001E
F0001E
F0001E
F0001E
F8001E
78003E
7C003E
3C007E
3E00FE
1FC7EE
0FFFCE
07FF0E
01FC00
ENDCHAR
STARTCHAR e
ENCODING 101
SWIDTH 561 0
DWIDTH 28 0
BBX 22 29 3 -1
BITMAP
00FE00
03FF80
0FFFE0
1FC7F0
1F01F0
3C00F8
7C0078
78003C
78003C
F0003C
F0003C
F0003C
FFFFFC
FFFFFC
FFFFFC
F00000
F00000
F00000
F00000
F80000
780000
780000
7C0000
3E0000
1F0018
1FF7F8
07FFF8
03FFF8
007FC0
ENDCHAR
STARTCHAR f
ENCODING 102
SWIDTH 336 0
DWIDTH 17 0
BBX 18 38 1 0
BITMAP
003F80
01FFC0
03FFC0
03F380
07C000
078000
078000
078000
0F8000
0F8000
0F8000
3FFE00
FFFE00
FFFE00
0F8000
0F8000
0F8000
0F8000
0F8000
0F8000
0F8000
0F8000
0F8000
0F8000
0F8000
0F8000
0F8000
0F8000
0F8000
0F8000
0F8000
0F8000
0F8000
0F8000
0F8000
0F8000
0F8000
0F8000
ENDCHAR
STARTCHAR g
ENCODING 103
SWIDTH 542 0
DWIDTH 27 0
BBX 25 40 1 -12
BITMAP
00FFFF80
03FFFF80
0FFFFF80
0F81FC00
1F00F800
3E007800
3C007C00
3C003C00
3C003C00
3C003C00
3C003C00
3C007C00
3E007800
1F00F800
1F81F000
0FFFE000
07FFC000
03FF0000
07000000
0E000000
1E000000
1E000000
1F000000
0FFFF000
07FFFC00
07FFFE00
1FFFFF00
3C001F00
78000F80
F0000780
F0000780
F0000780
F0000F80
F0000F00
F0001F00
F8003E00
7F01FC00
3FFFF800
1FFFE000
03FF0000
ENDCHAR
STARTCHAR h
ENCODING 104
SWIDTH 613 0
DWIDTH 31 0
BBX 23 38 4 0
BITMAP
F00000
F00000
F00000
F00000
F00000
F00000
F00000
F00000
F00000
F00000
F07F80
F1FFE0
F3FFF0
F7E7F8
FF00FC
FE007C
FC003C
F8003C
F8003E
F8001E
F8001E
F0001E
F0001E
F0001E
F0001E
F0001E
F0001E
F0001E
F0001E
F0001E
F0001E
F0001E
F0001E
F0001E
F0001E
F0001E
F0001E
F0001E
ENDCHAR
STARTCHAR i
ENCODING 105
SWIDTH 252 0
DWIDTH 13 0
BBX 5 37 4 0
BITMAP
F0
F8
F8
F8
70
00
00
00
00
00
F0
F0
F0
F0
F0
F0
F0
F0
F0
F0
F0
F0
F0
F0
F0
F0
F0
F0
F0
F0
F0
F0
F0
F0
F0
F0
F0
ENDCHAR
STARTCHAR j
ENCODING 106
SWIDTH 252 0
DWIDTH 13 0
BBX 12 49 -3 -12
BITMAP
01E0
01F0
01F0
01F0
00E0
0000
0000
0000
0000
0000
01E0
01E0
01E0
01E0
01E0
01E0
01E0
01E0
01E0
01E0
01E0
01E0
01E0
01E0
01E0
01E0
01E0
01E0
01E0
01E0
01E0
01E0
01E0
01E0
01E0
01E0
01E0
01E0
01E0
01E0
01E0
01E0
01E0
01E0
03E0
CFE0
FFC0
FF80
7E00
ENDCHAR
STARTCHAR k
ENCODING 107
SWIDTH 525 0
DWIDTH 26 0
BBX 22 38 4 0
BITMAP
F00000
F00000
F00000
F00000
F00000
F00000
F00000
F00000
F00000
F00000
F00000
F000F8
F001F0
F003E0
F007C0
F00F80
F01F00
F03E00
F07C00
F0F800
F0F000
F1E000
F3C000
F7E000
FFF000
FEF800
FCF800
F87C00
F03E00
F01F00
F01F00
F00F80
F007C0
F003E0
F003E0
F001F0
F000F8
F0007C
ENDCHAR
STARTCHAR l
ENCODING 108
SWIDTH 252 0
DWIDTH 13 0
BBX 4 38 4 0
BITMAP
F0
F0
F0
F0
F0
F0
F0
F0
F0
F0
F0
F0
F0
F0
F0
F0
F0
F0
F0
F0
F0
F0
F0
F0
F0
F0
F0
F0
F0
F0
F0
F0
F0
F0
F0
F0
F0
F0
ENDCHAR
STARTCHAR m
ENCODING 109
SWIDTH 925 0
DWIDTH 46 0
BBX 38 28 4 0
BITMAP
007F003F80
F1FFC0FFE0
F3FFE3FFF0
F7EFF7F7F8
FE01F700F8
FC00FE007C
FC007E003C
F8007C003C
F8007C003C
F8007C003C
F80078003C
F00078003C
F00078003C
F00078003C
F00078003C
F00078003C
F00078003C
F00078003C
F00078003C
F00078003C
F00078003C
F00078003C
F00078003C
F00078003C
F00078003C
F00078003C
F00078003C
F00078003C
ENDCHAR
STARTCHAR n
ENCODING 110
SWIDTH 613 0
DWIDTH 31 0
BBX 23 28 4 0
BITMAP
007F80
F1FFE0
F3FFF0
F7E7F8
FF00FC
FE007C
FC003C
F8003C
F8003E
F8001E
F8001E
F0001E
F0001E
F0001E
F0001E
F0001E
F0001E
F0001E
F0001E
F0001E
F0001E
F0001E
F0001E
F0001E
F0001E
F0001E
F0001E
F0001E
ENDCHAR
STARTCHAR o
ENCODING 111
SWIDTH 601 0
DWIDTH 30 0
BBX 24 29 3 -1
BITMAP
00FF00
03FFC0
0FFFF0
1FE7F8
1F00FC
3E007C
7C003E
78001E
78001F
F8000F
F0000F
F0000F
F0000F
F0000F
F0000F
F0000F
F0000F
F0000F
F0000F
F8000F
78001F
78001E
7C003E
3E007C
1F00FC
1FE7F8
07FFF0
03FFC0
00FF00
ENDCHAR
STARTCHAR p
ENCODING 112
SWIDTH 611 0
DWIDTH 31 0
BBX 24 40 4 -12
BITMAP
007F00
F1FFC0
F3FFF0
F7E7F8
FF00F8
FE007C
FC003E
F8003E
F8001E
F8001E
F8001F
F0001F
F0000F
F0000F
F0000F
F0000F
F0000F
F0001F
F8001F
F8001E
F8001E
F8003E
FC003C
FE007C
FF00F8
F7E7F8
F3FFF0
F1FFC0
F07F00
F00000
F00000
F00000
F00000
F00000
F00000
F00000
F00000
F00000
F00000
F00000
ENDCHAR
STARTCHAR q
ENCODING 113
SWIDTH 611 0
DWIDTH 31 0
BBX 23 40 3 -12
BITMAP
01FC00
07FF0E
0FFFCE
1FC7EE
3F00FE
3C007E
7C003E
78003E
F8003E
F8001E
F0001E
F0001E
F0001E
F0001E
F0001E
F0001E
F0001E
F0001E
F0001E
F0001E
F8001E
78003E
7C003E
7C007E
3E00FE
1FC7FE
0FFFDE
07FF1E
01FC1E
00001E
00001E
00001E
00001E
00001E
00001E
00001E
00001E
00001E
00001E
00001E
ENDCHAR
STARTCHAR r
ENCODING 114
SWIDTH 408 0
DWIDTH 20 0
BBX 16 28 4 0
BITMAP
003F
F0FF
F3FE
F3FE
F780
FE00
FC00
FC00
F800
F800
F800
F000
F000
F000
F000
F000
F000
F000
F000
F000
F000
F000
F000
F000
F000
F000
F000
F000
ENDCHAR
STARTCHAR s
ENCODING 115
SWIDTH 476 0
DWIDTH 24 0
BBX 19 29 3 -1
BITMAP
07FC00
1FFF80
3FFFC0
7E1F80
F80180
F00000
E00000
E00000
F00000
F00000
FC0000
7F0000
3FC000
1FF800
07FE00
00FF00
003F80
000FC0
0007C0
0003C0
0001E0
0001E0
0003C0
0003C0
C007C0
FC3F80
FFFF00
FFFE00
1FF000
ENDCHAR
STARTCHAR t
ENCODING 116
SWIDTH 356 0
DWIDTH 18 0
BBX 16 34 1 -1
BITMAP
0700
0700
0F00
0F00
0F00
0F00
7FFF
FFFF
FFFF
0F00
0F00
0F00
0F00
0F00
0F00
0F00
0F00
0F00
0F00
0F00
0F00
0F00
0F00
0F00
0F00
0F00
0F00
0F00
0F00
0F80
07E3
07FF
03FF
00FE
ENDCHAR
STARTCHAR u
ENCODING 117
SWIDTH 613 0
DWIDTH 31 0
BBX 22 28 4 -1
BITMAP
F0003C
F0003C
F0003C
F0003C
F0003C
F0003C
F0003C
F0003C
F0003C
F0003C
F0003C
F0003C
F0003C
F0003C
F0003C
F0003C
F0003C
F0003C
F0003C
F0003C
F0007C
F8007C
7800FC
7C01FC
7F8FDC
3FFF9C
1FFE1C
03F800
ENDCHAR
STARTCHAR v
ENCODING 118
SWIDTH 499 0
DWIDTH 25 0
BBX 25 27 0 0
BITMAP
F8000F80
78000F00
78000F00
7C001F00
3C001E00
3C001E00
3E003E00
1E003C00
1E003C00
0F007800
0F007800
0F00F800
0780F000
0780F000
07C1F000
03C1E000
03C1E000
01E3C000
01E3C000
01E3C000
00F78000
00F78000
00F78000
007F0000
007F0000
003E0000
003E0000
ENDCHAR
STARTCHAR w
ENCODING 119
SWIDTH 774 0
DWIDTH 39 0
BBX 37 27 1 0
BITMAP
F000F80078
F000F80078
F001F800F0
7801FC00F0
7801FC00F0
7801DC00F0
7803DE01E0
3C03DE01E0
3C039E01E0
3C078F01E0
3C078F03C0
1E070F03C0
1E0F0703C0
1E0F078780
0F0F078780
0F1E038780
0F1E03C780
0F1E03CF00
079C03CF00
07BC01EF00
07BC01EF00
07B801EE00
03B800FE00
03F800FE00
03F000FC00
01F0007C00
01F0007C00
ENDCHAR
STARTCHAR x
ENCODING 120
SWIDTH 523 0
DWIDTH 26 0
BBX 24 27 1 0
BITMAP
78001E
7C003E
3E007C
1E0078
0F00F8
0F81F0
0781E0
03C3C0
03E7C0
01E780
00FF00
00FF00
007E00
007E00
007E00
00FF00
01FF80
01E780
03C3C0
07C3E0
0F81F0
0F00F0
1F0078
3E007C
3C003C
7C001E
F8001F
ENDCHAR
STARTCHAR y
ENCODING 121
SWIDTH 500 0
DWIDTH 25 0
BBX 25 39 0 -12
BITMAP
F8000F80
78000F00
78000F00
7C001F00
3C001E00
3C001E00
1E003E00
1E003C00
1F003C00
0F007800
0F007800
07807800
0780F000
0780F000
03C1F000
03C1E000
01E1E000
01E3C000
01E3C000
00F3C000
00F78000
00778000
00778000
007F0000
003F0000
003E0000
001E0000
001E0000
003C0000
003C0000
007C0000
00780000
00F80000
00F00000
01F00000
C7E00000
FFC00000
FF800000
FE000000
ENDCHAR
STARTCHAR z
ENCODING 122
SWIDTH 468 0
DWIDTH 23 0
BBX 19 27 2 0
BITMAP
7FFFE0
7FFFE0
7FFFE0
0003E0
0003C0
000780
000F80
000F00
001E00
003E00
003C00
007800
00F800
01F000
01E000
03C000
07C000
078000
0F0000
1F0000
1E0000
3C0000
7C0000
780000
FFFFE0
FFFFE0
FFFFE0
ENDCHAR
STARTCHAR braceleft
ENCODING 123
SWIDTH 375 0
DWIDTH 19 0
BBX 16 44 1 -8
BITMAP
000F
003F
00FF
00FC
01F0
01E0
03E0
03C0
03C0
03C0
03C0
03C0
03C0
03C0
03C0
03C0
03C0
03C0
03C0
07C0
3F80
FE00
F800
FF00
0F80
07C0
03C0
03C0
03C0
03C0
03C0
03C0
03C0
03C0
03C0
03C0
03C0
03E0
01E0
01F0
00FE
00FF
003F
000F
ENDCHAR
STARTCHAR bar
ENCODING 124
SWIDTH 549 0
DWIDTH 27 0
BBX 3 50 12 -12
BITMAP
E0
E0
E0
E0
E0
E0
E0
E0
E0
E0
E0
E0
E0
E0
E0
E0
E0
E0
E0
E0
E0
E0
E0
E0
E0
E0
E0
E0
E0
E0
E0
E0
E0
E0
E0
E0
E0
E0
E0
E0
E0
E0
E0
E0
E0
E0
E0
E0
E0
E0
ENDCHAR
STARTCHAR braceright
ENCODING 125
SWIDTH 375 0
DWIDTH 19 0
BBX 15 44 2 -8
BITMAP
F000
FC00
FE00
7F00
0F80
0780
0780
0780
0780
0780
0780
0780
0780
0780
0780
0780
0780
07C0
03C0
03E0
01F8
00FE
001E
00FE
01F0
03C0
03C0
0780
0780
0780
0780
0780
0780
0780
0780
0780
0780
0780
0780
0F80
7F00
FE00
FC00
F000
ENDCHAR
STARTCHAR asciitilde
ENCODING 126
SWIDTH 571 0
DWIDTH 29 0
BBX 23 6 3 14
BITMAP
1F8002
7FF006
FFFF1E
F1FFFE
C03FFC
8007F0
ENDCHAR
ENDFONT
