STARTFONT 2.1
FONT -FontForge-Roboto-Bold-R-Normal--60-720-60-60-P-332-ISO10646-1
SIZE 72 60 60
FONTBOUNDINGBOX 49 47 0 -4
COMMENT "Generated by fontforge, http://fontforge.sourceforge.net"
COMMENT "Copyright 2011 Google Inc. All Rights Reserved."
STARTPROPERTIES 36
FOUNDRY "FontForge"
FAMILY_NAME "Roboto"
WEIGHT_NAME "Bold"
SLANT "R"
SETWIDTH_NAME "Normal"
ADD_STYLE_NAME ""
PIXEL_SIZE 60
POINT_SIZE 720
RESOLUTION_X 60
RESOLUTION_Y 60
SPACING "P"
AVERAGE_WIDTH 332
CHARSET_REGISTRY "ISO10646"
CHARSET_ENCODING "1"
FONTNAME_REGISTRY ""
CHARSET_COLLECTIONS "ISO10646-1"
FONT_NAME "Roboto-Bold"
FACE_NAME "Roboto Bold"
COPYRIGHT "Copyright 2011 Google Inc. All Rights Reserved."
FONT_VERSION "2.137; 2017"
FONT_ASCENT 45
FONT_DESCENT 15
UNDERLINE_POSITION -6
UNDERLINE_THICKNESS 3
RAW_ASCENT 750
RAW_DESCENT 250
RELATIVE_WEIGHT 70
RELATIVE_SETWIDTH 50
SUPERSCRIPT_X 0
SUPERSCRIPT_Y 28
SUPERSCRIPT_SIZE 38
SUBSCRIPT_X 0
SUBSCRIPT_Y 8
SUBSCRIPT_SIZE 38
FIGURE_WIDTH 34
AVG_UPPERCASE_WIDTH 530
ENDPROPERTIES
CHARS 13
STARTCHAR period
ENCODING 46
SWIDTH 290 0
DWIDTH 17 0
BBX 10 9 3 0
BITMAP
1F00
3F80
7FC0
7FC0
FFC0
7FC0
7FC0
3F80
1F00
ENDCHAR
STARTCHAR slash
ENCODING 47
SWIDTH 373 0
DWIDTH 22 0
BBX 22 47 0 -4
BITMAP
0001FC
0001F8
0003F8
0003F0
0003F0
0007F0
0007E0
0007E0
000FE0
000FC0
000FC0
001FC0
001F80
001F80
003F80
003F00
003F00
007F00
007E00
007E00
00FE00
00FC00
00FC00
01FC00
01F800
01F800
03F800
03F000
03F000
07F000
07E000
07E000
0FE000
0FC000
0FC000
1FC000
1F8000
1F8000
3F8000
3F0000
3F0000
7F0000
7E0000
7E0000
FE0000
FC0000
FC0000
ENDCHAR
STARTCHAR zero
ENCODING 48
SWIDTH 573 0
DWIDTH 34 0
BBX 28 44 3 -1
BITMAP
003FC000
01FFF800
07FFFC00
0FFFFF00
1FFFFF80
1FFFFF80
3FFFFFC0
3FF0FFC0
7FC03FE0
7F801FE0
FF801FE0
FF801FF0
FF000FF0
FF000FF0
FF000FF0
FF000FF0
FF000FF0
FF000FF0
FF000FF0
FF000FF0
FF000FF0
FF000FF0
FF000FF0
FF000FF0
FF000FF0
FF000FF0
FF000FF0
FF000FF0
FF000FF0
FF000FF0
FF000FF0
FF000FF0
FF801FF0
FF801FE0
7F801FE0
7FC03FE0
3FF0FFC0
3FFFFFC0
1FFFFF80
1FFFFF80
0FFFFF00
07FFFC00
01FFF800
003FC000
ENDCHAR
STARTCHAR one
ENCODING 49
SWIDTH 573 0
DWIDTH 34 0
BBX 18 43 5 0
BITMAP
0000C0
0007C0
003FC0
01FFC0
0FFFC0
7FFFC0
FFFFC0
FFFFC0
FFFFC0
FFFFC0
FF3FC0
F83FC0
C03FC0
003FC0
003FC0
003FC0
003FC0
003FC0
003FC0
003FC0
003FC0
003FC0
003FC0
003FC0
003FC0
003FC0
003FC0
003FC0
003FC0
003FC0
003FC0
003FC0
003FC0
003FC0
003FC0
003FC0
003FC0
003FC0
003FC0
003FC0
003FC0
003FC0
003FC0
ENDCHAR
STARTCHAR two
ENCODING 50
SWIDTH 573 0
DWIDTH 34 0
BBX 30 43 2 0
BITMAP
003FE000
00FFFC00
03FFFF00
0FFFFF80
1FFFFFC0
1FFFFFE0
3FFFFFE0
7FF07FF0
7FC01FF0
FFC01FF0
FF800FF0
FF800FF8
FF000FF8
FF000FF0
00000FF0
00000FF0
00001FF0
00001FE0
00003FE0
00007FC0
0000FFC0
0001FF80
0001FF00
0003FE00
0007FE00
000FFC00
001FF800
003FF000
007FE000
00FFC000
01FF8000
03FF0000
07FE0000
0FFC0000
1FF80000
3FF00000
7FFFFFFC
7FFFFFFC
7FFFFFFC
7FFFFFFC
7FFFFFFC
7FFFFFFC
7FFFFFFC
ENDCHAR
STARTCHAR three
ENCODING 51
SWIDTH 573 0
DWIDTH 34 0
BBX 29 44 2 -1
BITMAP
003FE000
01FFFC00
07FFFF00
0FFFFF80
1FFFFFC0
3FFFFFE0
7FFFFFE0
7FF07FF0
7FC01FF0
FF801FF0
FF800FF8
FF800FF8
00000FF8
00000FF8
00000FF0
00001FF0
00001FF0
00007FE0
007FFFC0
007FFF80
007FFF00
007FFE00
007FFF80
007FFFC0
007FFFE0
00007FF0
00001FF0
00000FF8
00000FF8
000007F8
000007F8
000007F8
FF0007F8
FF000FF8
FF800FF8
FFC01FF8
7FF07FF0
7FFFFFF0
3FFFFFE0
1FFFFFC0
0FFFFF80
07FFFF00
01FFFC00
003FE000
ENDCHAR
STARTCHAR four
ENCODING 52
SWIDTH 573 0
DWIDTH 34 0
BBX 31 43 2 0
BITMAP
00007FC0
0000FFC0
0000FFC0
0001FFC0
0001FFC0
0003FFC0
0007FFC0
0007FFC0
000FFFC0
001FFFC0
001FFFC0
003FFFC0
003FFFC0
007F7FC0
00FF7FC0
00FE7FC0
01FE7FC0
03FC7FC0
03F87FC0
07F87FC0
07F07FC0
0FE07FC0
1FE07FC0
1FC07FC0
3FC07FC0
7F807FC0
7F007FC0
FFFFFFFE
FFFFFFFE
FFFFFFFE
FFFFFFFE
FFFFFFFE
FFFFFFFE
FFFFFFFE
00007FC0
00007FC0
00007FC0
00007FC0
00007FC0
00007FC0
00007FC0
00007FC0
00007FC0
ENDCHAR
STARTCHAR five
ENCODING 53
SWIDTH 573 0
DWIDTH 34 0
BBX 29 44 3 -1
BITMAP
1FFFFFE0
1FFFFFE0
1FFFFFE0
1FFFFFE0
1FFFFFE0
1FFFFFE0
1FFFFFE0
1FC00000
3FC00000
3FC00000
3FC00000
3FC00000
3FC00000
3FC00000
3FC00000
3F8FF000
3FBFFC00
7FFFFF00
7FFFFF80
7FFFFFC0
7FFFFFE0
7FFFFFE0
7FC0FFF0
07803FF0
00001FF0
00000FF0
00000FF8
00000FF8
00000FF8
00000FF8
00000FF8
00000FF8
FF000FF8
FF800FF0
FF801FF0
7FC03FF0
7FF07FE0
3FFFFFE0
3FFFFFC0
1FFFFF80
0FFFFF00
07FFFE00
01FFF800
003FE000
ENDCHAR
STARTCHAR six
ENCODING 54
SWIDTH 573 0
DWIDTH 34 0
BBX 29 44 3 -1
BITMAP
0000FE00
0007FE00
001FFE00
007FFE00
00FFFE00
01FFFE00
03FFFE00
07FFC000
0FFE0000
1FF80000
1FF00000
3FE00000
3FE00000
7FC00000
7F800000
7F87F800
FF9FFE00
FFFFFF00
FFFFFF80
FFFFFFC0
FFFFFFE0
FFFFFFE0
FFF07FF0
FFC03FF0
FF801FF8
FF000FF8
FF000FF8
FF000FF8
FF0007F8
FF0007F8
FF0007F8
FF800FF8
FF800FF8
7F800FF8
7FC01FF0
7FE03FF0
3FF07FF0
1FFFFFE0
1FFFFFC0
0FFFFF80
07FFFF80
03FFFE00
00FFFC00
001FE000
ENDCHAR
STARTCHAR seven
ENCODING 55
SWIDTH 573 0
DWIDTH 34 0
BBX 30 43 2 0
BITMAP
FFFFFFFC
FFFFFFFC
FFFFFFFC
FFFFFFFC
FFFFFFFC
FFFFFFFC
FFFFFFF8
000007F8
00000FF0
00000FF0
00001FE0
00001FE0
00003FE0
00003FC0
00003FC0
00007F80
00007F80
0000FF00
0000FF00
0001FF00
0001FE00
0003FE00
0003FC00
0007FC00
0007F800
000FF800
000FF800
000FF000
001FF000
001FE000
003FE000
003FC000
007FC000
007FC000
00FF8000
00FF8000
01FF0000
01FF0000
01FE0000
03FE0000
03FE0000
07FC0000
0FFC0000
ENDCHAR
STARTCHAR eight
ENCODING 56
SWIDTH 573 0
DWIDTH 34 0
BBX 28 44 3 -1
BITMAP
003FC000
01FFF800
07FFFE00
0FFFFF00
1FFFFF80
3FFFFFC0
3FFFFFC0
7FF0FFE0
7FC03FE0
7FC03FE0
7F801FE0
FF801FE0
FF801FE0
7F801FE0
7F801FE0
7FC03FE0
7FC03FC0
3FF0FFC0
1FFFFF80
0FFFFF00
07FFFE00
03FFFC00
0FFFFF00
1FFFFF80
3FFFFFC0
7FE07FE0
7FC03FE0
FF801FF0
FF001FF0
FF000FF0
FF000FF0
FF000FF0
FF000FF0
FF001FF0
FF801FF0
FFC03FF0
FFE07FF0
7FFFFFE0
7FFFFFC0
3FFFFFC0
1FFFFF80
0FFFFE00
03FFFC00
007FE000
ENDCHAR
STARTCHAR nine
ENCODING 57
SWIDTH 573 0
DWIDTH 34 0
BBX 29 43 2 0
BITMAP
001FE000
00FFF800
03FFFE00
07FFFF00
0FFFFF80
1FFFFFC0
1FFFFFC0
3FF07FE0
3FE03FE0
7FC01FF0
7FC00FF0
7F800FF0
FF800FF8
FF8007F8
FF8007F8
FF8007F8
FF8007F8
FF8007F8
7F8007F8
7FC00FF8
7FE01FF8
7FF07FF8
3FFFFFF8
3FFFFFF8
1FFFFFF8
0FFFFFF8
07FFFFF0
01FFCFF0
007F0FF0
00000FF0
00001FE0
00001FE0
00003FE0
00007FC0
0001FF80
000FFF80
01FFFF00
01FFFE00
01FFFC00
01FFF000
01FFE000
01FF0000
01F80000
ENDCHAR
STARTCHAR M
ENCODING 77
SWIDTH 875 0
DWIDTH 53 0
BBX 45 43 4 0
BITMAP
FFE000007FF8
FFF000007FF8
FFF00000FFF8
FFF80000FFF8
FFF80000FFF8
FFF80001FFF8
FFFC0001FFF8
FFFC0001FFF8
FFFC0003FFF8
FFFE0003FFF8
FFFE0007FFF8
FFFE0007FFF8
FFFF0007F7F8
FF7F000FF7F8
FF7F000FE7F8
FF7F800FE7F8
FF3F801FEFF8
FF3F801FCFF8
FF3FC01FCFF8
FF1FC03FCFF8
FF1FC03F8FF8
FF1FE03F8FF8
FF0FE07F8FF8
FF0FF07F0FF8
FF07F07F0FF8
FF07F0FF0FF8
FF07F8FE0FF8
FF03F8FE0FF8
FF03F9FC0FF8
FF83FDFC0FF8
FF81FFFC0FF8
FF81FFF80FF8
FF81FFF80FF8
FF80FFF80FF8
FF80FFF00FF8
FF807FF00FF8
FF807FF00FF8
FF807FE00FF8
FF803FE00FF8
FF803FE00FF8
FF803FC00FF8
FF801FC00FF8
FF801F800FF8
ENDCHAR
ENDFONT
