STARTFONT 2.1
FONT -FontForge-Roboto-Book-R-Normal--16-150-75-75-P-81-ISO10646-1
SIZE 15 75 75
FONTBOUNDINGBOX 14 18 0 -4
COMMENT "Generated by fontforge, http://fontforge.sourceforge.net"
COMMENT "Copyright 2011 Google Inc. All Rights Reserved."
STARTPROPERTIES 39
FOUNDRY "FontForge"
FAMILY_NAME "Roboto"
WEIGHT_NAME "Book"
SLANT "R"
SETWIDTH_NAME "Normal"
ADD_STYLE_NAME ""
PIXEL_SIZE 16
POINT_SIZE 150
RESOLUTION_X 75
RESOLUTION_Y 75
SPACING "P"
AVERAGE_WIDTH 81
CHARSET_REGISTRY "ISO10646"
CHARSET_ENCODING "1"
FONTNAME_REGISTRY ""
CHARSET_COLLECTIONS "ISO10646-1"
FONT_NAME "Roboto-Regular"
FACE_NAME "Roboto"
COPYRIGHT "Copyright 2011 Google Inc. All Rights Reserved."
FONT_VERSION "2.137; 2017"
FONT_ASCENT 12
FONT_DESCENT 4
UNDERLINE_POSITION -2
UNDERLINE_THICKNESS 1
X_HEIGHT 8
CAP_HEIGHT 11
RAW_ASCENT 750
RAW_DESCENT 250
RELATIVE_WEIGHT 40
RELATIVE_SETWIDTH 50
SUPERSCRIPT_X 0
SUPERSCRIPT_Y 7
SUPERSCRIPT_SIZE 10
SUBSCRIPT_X 0
SUBSCRIPT_Y 2
SUBSCRIPT_SIZE 10
FIGURE_WIDTH 9
AVG_LOWERCASE_WIDTH 80
AVG_UPPERCASE_WIDTH 101
ENDPROPERTIES
CHARS 95
STARTCHAR glyph1.dup1
ENCODING 0
SWIDTH 0 0
DWIDTH 0 0
BBX 1 1 0 0
BITMAP
00
ENDCHAR
STARTCHAR exclam
ENCODING 33
SWIDTH 257 0
DWIDTH 4 0
BBX 2 12 1 0
BITMAP
C0
C0
C0
C0
C0
C0
C0
C0
00
00
C0
C0
ENDCHAR
STARTCHAR quotedbl
ENCODING 34
SWIDTH 319 0
DWIDTH 5 0
BBX 3 4 1 8
BITMAP
A0
A0
A0
A0
ENDCHAR
STARTCHAR numbersign
ENCODING 35
SWIDTH 615 0
DWIDTH 10 0
BBX 9 12 1 0
BITMAP
1B00
1200
1200
7F80
3200
2600
2400
FF00
2400
2400
6400
4C00
ENDCHAR
STARTCHAR dollar
ENCODING 36
SWIDTH 561 0
DWIDTH 9 0
BBX 7 15 1 -1
BITMAP
10
10
3C
46
C6
C2
40
70
1C
06
02
82
C6
7C
10
ENDCHAR
STARTCHAR percent
ENCODING 37
SWIDTH 732 0
DWIDTH 12 0
BBX 10 12 1 0
BITMAP
7000
9100
9200
9200
7400
0400
0800
1B80
1640
2440
2640
0380
ENDCHAR
STARTCHAR ampersand
ENCODING 38
SWIDTH 621 0
DWIDTH 10 0
BBX 9 12 1 0
BITMAP
3800
6400
4400
4400
7800
3000
7900
C900
8D00
8700
C700
7D80
ENDCHAR
STARTCHAR quotesingle
ENCODING 39
SWIDTH 174 0
DWIDTH 3 0
BBX 1 4 1 8
BITMAP
80
80
80
80
ENDCHAR
STARTCHAR parenleft
ENCODING 40
SWIDTH 341 0
DWIDTH 5 0
BBX 4 17 1 -4
BITMAP
10
30
20
40
40
C0
C0
C0
80
C0
C0
C0
40
40
20
30
10
ENDCHAR
STARTCHAR parenright
ENCODING 41
SWIDTH 347 0
DWIDTH 6 0
BBX 4 17 0 -4
BITMAP
80
40
20
20
30
10
10
10
10
10
10
10
30
20
20
40
80
ENDCHAR
STARTCHAR asterisk
ENCODING 42
SWIDTH 430 0
DWIDTH 7 0
BBX 7 6 0 6
BITMAP
10
10
FE
10
28
4C
ENDCHAR
STARTCHAR plus
ENCODING 43
SWIDTH 566 0
DWIDTH 9 0
BBX 7 8 1 1
BITMAP
10
10
10
FE
10
10
10
10
ENDCHAR
STARTCHAR comma
ENCODING 44
SWIDTH 196 0
DWIDTH 3 0
BBX 2 4 0 -2
BITMAP
40
40
40
C0
ENDCHAR
STARTCHAR hyphen
ENCODING 45
SWIDTH 275 0
DWIDTH 4 0
BBX 4 1 0 4
BITMAP
F0
ENDCHAR
STARTCHAR period
ENCODING 46
SWIDTH 263 0
DWIDTH 4 0
BBX 2 2 1 0
BITMAP
C0
C0
ENDCHAR
STARTCHAR slash
ENCODING 47
SWIDTH 412 0
DWIDTH 7 0
BBX 6 13 0 -1
BITMAP
04
0C
08
08
10
10
10
20
20
60
40
40
C0
ENDCHAR
STARTCHAR zero
ENCODING 48
SWIDTH 561 0
DWIDTH 9 0
BBX 7 12 1 0
BITMAP
38
44
C6
82
82
82
82
82
82
C6
44
38
ENDCHAR
STARTCHAR one
ENCODING 49
SWIDTH 561 0
DWIDTH 9 0
BBX 5 12 1 0
BITMAP
18
78
D8
18
18
18
18
18
18
18
18
18
ENDCHAR
STARTCHAR two
ENCODING 50
SWIDTH 561 0
DWIDTH 9 0
BBX 7 12 1 0
BITMAP
78
C4
86
86
06
04
0C
18
30
60
C0
FE
ENDCHAR
STARTCHAR three
ENCODING 51
SWIDTH 561 0
DWIDTH 9 0
BBX 7 12 1 0
BITMAP
78
C4
86
06
04
38
04
06
06
86
C4
78
ENDCHAR
STARTCHAR four
ENCODING 52
SWIDTH 561 0
DWIDTH 9 0
BBX 9 12 0 0
BITMAP
0600
0600
0A00
1A00
1200
3200
2200
4200
FF80
0200
0200
0200
ENDCHAR
STARTCHAR five
ENCODING 53
SWIDTH 561 0
DWIDTH 9 0
BBX 7 12 1 0
BITMAP
7E
40
40
40
7C
46
02
02
02
C2
46
3C
ENDCHAR
STARTCHAR six
ENCODING 54
SWIDTH 561 0
DWIDTH 9 0
BBX 7 12 1 0
BITMAP
1C
20
40
C0
FC
C6
C2
82
C2
C2
66
3C
ENDCHAR
STARTCHAR seven
ENCODING 55
SWIDTH 561 0
DWIDTH 9 0
BBX 7 12 1 0
BITMAP
FE
02
06
04
0C
08
18
10
10
30
20
60
ENDCHAR
STARTCHAR eight
ENCODING 56
SWIDTH 561 0
DWIDTH 9 0
BBX 7 12 1 0
BITMAP
78
44
C6
C6
44
38
44
82
82
82
C6
7C
ENDCHAR
STARTCHAR nine
ENCODING 57
SWIDTH 561 0
DWIDTH 9 0
BBX 7 12 1 0
BITMAP
78
CC
86
86
86
86
C6
7E
06
04
0C
70
ENDCHAR
STARTCHAR colon
ENCODING 58
SWIDTH 242 0
DWIDTH 4 0
BBX 2 9 1 0
BITMAP
C0
C0
00
00
00
00
00
C0
C0
ENDCHAR
STARTCHAR semicolon
ENCODING 59
SWIDTH 211 0
DWIDTH 3 0
BBX 3 11 0 -2
BITMAP
60
60
00
00
00
00
00
60
40
40
C0
ENDCHAR
STARTCHAR less
ENCODING 60
SWIDTH 508 0
DWIDTH 8 0
BBX 6 7 1 2
BITMAP
04
1C
70
80
70
1C
04
ENDCHAR
STARTCHAR equal
ENCODING 61
SWIDTH 548 0
DWIDTH 9 0
BBX 7 4 1 3
BITMAP
FE
00
00
FE
ENDCHAR
STARTCHAR greater
ENCODING 62
SWIDTH 522 0
DWIDTH 8 0
BBX 7 7 1 2
BITMAP
80
E0
1C
06
1C
E0
80
ENDCHAR
STARTCHAR question
ENCODING 63
SWIDTH 472 0
DWIDTH 8 0
BBX 6 12 1 0
BITMAP
78
CC
8C
0C
0C
18
30
20
00
00
20
20
ENDCHAR
STARTCHAR at
ENCODING 64
SWIDTH 897 0
DWIDTH 14 0
BBX 13 14 1 -3
BITMAP
0F80
3060
6030
4710
CC90
8888
9888
9988
9990
9990
CEE0
4000
3080
1F00
ENDCHAR
STARTCHAR A
ENCODING 65
SWIDTH 652 0
DWIDTH 10 0
BBX 10 12 0 0
BITMAP
0C00
0C00
1E00
1E00
1200
3300
3300
2100
7F80
4080
4080
C0C0
ENDCHAR
STARTCHAR B
ENCODING 66
SWIDTH 622 0
DWIDTH 10 0
BBX 8 12 1 0
BITMAP
FC
C2
C3
C3
C2
FC
C3
C3
C1
C3
C3
FC
ENDCHAR
STARTCHAR C
ENCODING 67
SWIDTH 650 0
DWIDTH 10 0
BBX 9 12 1 0
BITMAP
3E00
6300
4100
C180
8000
8000
8000
8000
C180
4100
6300
3E00
ENDCHAR
STARTCHAR D
ENCODING 68
SWIDTH 655 0
DWIDTH 11 0
BBX 9 12 1 0
BITMAP
FC00
C600
C300
C100
C100
C180
C180
C100
C100
C300
C600
FC00
ENDCHAR
STARTCHAR E
ENCODING 69
SWIDTH 568 0
DWIDTH 9 0
BBX 8 12 1 0
BITMAP
FE
C0
C0
C0
C0
FE
C0
C0
C0
C0
C0
FF
ENDCHAR
STARTCHAR F
ENCODING 70
SWIDTH 552 0
DWIDTH 9 0
BBX 7 12 1 0
BITMAP
FE
C0
C0
C0
C0
FE
C0
C0
C0
C0
C0
C0
ENDCHAR
STARTCHAR G
ENCODING 71
SWIDTH 681 0
DWIDTH 11 0
BBX 9 12 1 0
BITMAP
3E00
6300
4100
C180
C000
8000
8780
C180
C180
4180
6180
1E00
ENDCHAR
STARTCHAR H
ENCODING 72
SWIDTH 712 0
DWIDTH 11 0
BBX 9 12 1 0
BITMAP
C080
C080
C080
C080
C080
C080
FF80
C080
C080
C080
C080
C080
ENDCHAR
STARTCHAR I
ENCODING 73
SWIDTH 271 0
DWIDTH 4 0
BBX 2 12 1 0
BITMAP
C0
C0
C0
C0
C0
C0
C0
C0
C0
C0
C0
C0
ENDCHAR
STARTCHAR J
ENCODING 74
SWIDTH 551 0
DWIDTH 9 0
BBX 8 12 0 0
BITMAP
03
03
03
03
03
03
03
03
03
C2
66
3C
ENDCHAR
STARTCHAR K
ENCODING 75
SWIDTH 626 0
DWIDTH 10 0
BBX 9 12 1 0
BITMAP
C380
C200
C600
CC00
D800
F000
E800
CC00
C600
C200
C300
C180
ENDCHAR
STARTCHAR L
ENCODING 76
SWIDTH 538 0
DWIDTH 9 0
BBX 7 12 1 0
BITMAP
C0
C0
C0
C0
C0
C0
C0
C0
C0
C0
C0
FE
ENDCHAR
STARTCHAR M
ENCODING 77
SWIDTH 873 0
DWIDTH 14 0
BBX 12 12 1 0
BITMAP
C030
E070
E070
F0F0
D0B0
D0B0
D9B0
C930
CB30
CF30
C630
C630
ENDCHAR
STARTCHAR N
ENCODING 78
SWIDTH 712 0
DWIDTH 11 0
BBX 9 12 1 0
BITMAP
C180
C180
E180
F180
D180
D980
CD80
CD80
C780
C380
C380
C180
ENDCHAR
STARTCHAR O
ENCODING 79
SWIDTH 687 0
DWIDTH 11 0
BBX 9 12 1 0
BITMAP
3E00
6300
4100
C180
8080
8080
8080
8080
C180
4100
6300
3E00
ENDCHAR
STARTCHAR P
ENCODING 80
SWIDTH 630 0
DWIDTH 10 0
BBX 8 12 1 0
BITMAP
FE
C3
C1
C1
C1
C3
FE
C0
C0
C0
C0
C0
ENDCHAR
STARTCHAR Q
ENCODING 81
SWIDTH 687 0
DWIDTH 11 0
BBX 9 14 1 -2
BITMAP
3E00
6300
4100
C180
8180
8080
8080
8180
C180
C100
6300
3E00
0380
0100
ENDCHAR
STARTCHAR R
ENCODING 82
SWIDTH 615 0
DWIDTH 10 0
BBX 9 12 1 0
BITMAP
FE00
C300
C300
C100
C300
C300
FC00
C400
C600
C200
C300
C180
ENDCHAR
STARTCHAR S
ENCODING 83
SWIDTH 593 0
DWIDTH 10 0
BBX 8 12 1 0
BITMAP
3C
42
C3
C0
40
70
1C
03
01
C1
43
3E
ENDCHAR
STARTCHAR T
ENCODING 84
SWIDTH 596 0
DWIDTH 10 0
BBX 9 12 0 0
BITMAP
FF80
0C00
0C00
0C00
0C00
0C00
0C00
0C00
0C00
0C00
0C00
0C00
ENDCHAR
STARTCHAR U
ENCODING 85
SWIDTH 648 0
DWIDTH 10 0
BBX 8 12 1 0
BITMAP
81
81
81
81
81
81
81
81
81
C3
42
3C
ENDCHAR
STARTCHAR V
ENCODING 86
SWIDTH 636 0
DWIDTH 10 0
BBX 10 12 0 0
BITMAP
C0C0
4080
6180
6180
2100
3300
3300
1200
1E00
1E00
0C00
0C00
ENDCHAR
STARTCHAR W
ENCODING 87
SWIDTH 887 0
DWIDTH 14 0
BBX 14 12 0 0
BITMAP
C30C
430C
6308
6388
2698
2498
24D0
3450
3C50
1870
1860
1820
ENDCHAR
STARTCHAR X
ENCODING 88
SWIDTH 626 0
DWIDTH 10 0
BBX 10 12 0 0
BITMAP
61C0
6180
3300
1200
1E00
0C00
0C00
1E00
1200
3300
6180
E0C0
ENDCHAR
STARTCHAR Y
ENCODING 89
SWIDTH 600 0
DWIDTH 10 0
BBX 9 12 0 0
BITMAP
C080
6180
6100
3300
3200
1E00
0C00
0C00
0C00
0C00
0C00
0C00
ENDCHAR
STARTCHAR Z
ENCODING 90
SWIDTH 598 0
DWIDTH 10 0
BBX 8 12 1 0
BITMAP
FF
02
06
0C
08
18
10
30
60
40
C0
FF
ENDCHAR
STARTCHAR bracketleft
ENCODING 91
SWIDTH 265 0
DWIDTH 4 0
BBX 3 15 1 -2
BITMAP
E0
C0
C0
C0
C0
C0
C0
C0
C0
C0
C0
C0
C0
C0
E0
ENDCHAR
STARTCHAR backslash
ENCODING 92
SWIDTH 410 0
DWIDTH 7 0
BBX 6 13 0 -1
BITMAP
C0
40
60
20
20
30
10
10
18
08
0C
04
04
ENDCHAR
STARTCHAR bracketright
ENCODING 93
SWIDTH 265 0
DWIDTH 4 0
BBX 3 15 0 -2
BITMAP
E0
20
20
20
20
20
20
20
20
20
20
20
20
20
E0
ENDCHAR
STARTCHAR asciicircum
ENCODING 94
SWIDTH 417 0
DWIDTH 7 0
BBX 5 6 1 6
BITMAP
20
70
50
50
D8
88
ENDCHAR
STARTCHAR underscore
ENCODING 95
SWIDTH 451 0
DWIDTH 7 0
BBX 7 1 0 -1
BITMAP
FE
ENDCHAR
STARTCHAR grave
ENCODING 96
SWIDTH 309 0
DWIDTH 5 0
BBX 4 2 0 10
BITMAP
E0
30
ENDCHAR
STARTCHAR a
ENCODING 97
SWIDTH 543 0
DWIDTH 9 0
BBX 7 9 1 0
BITMAP
38
44
C6
06
7E
C6
86
C6
7E
ENDCHAR
STARTCHAR b
ENCODING 98
SWIDTH 561 0
DWIDTH 9 0
BBX 7 12 1 0
BITMAP
C0
C0
C0
FC
C6
C2
C2
C2
C2
C2
C6
BC
ENDCHAR
STARTCHAR c
ENCODING 99
SWIDTH 523 0
DWIDTH 8 0
BBX 7 9 1 0
BITMAP
78
C4
86
80
80
80
86
C4
78
ENDCHAR
STARTCHAR d
ENCODING 100
SWIDTH 563 0
DWIDTH 9 0
BBX 7 12 1 0
BITMAP
06
06
06
7E
C6
86
86
86
86
86
C6
7A
ENDCHAR
STARTCHAR e
ENCODING 101
SWIDTH 529 0
DWIDTH 8 0
BBX 8 9 0 0
BITMAP
3C
66
42
43
FF
40
40
63
3C
ENDCHAR
STARTCHAR f
ENCODING 102
SWIDTH 347 0
DWIDTH 6 0
BBX 5 12 1 0
BITMAP
38
60
60
F0
60
60
60
60
60
60
60
60
ENDCHAR
STARTCHAR g
ENCODING 103
SWIDTH 561 0
DWIDTH 9 0
BBX 7 12 1 -3
BITMAP
7A
C6
C6
86
86
86
86
C6
7E
06
C4
78
ENDCHAR
STARTCHAR h
ENCODING 104
SWIDTH 550 0
DWIDTH 9 0
BBX 7 12 1 0
BITMAP
C0
C0
C0
FC
C6
C6
C6
C6
C6
C6
C6
C6
ENDCHAR
STARTCHAR i
ENCODING 105
SWIDTH 242 0
DWIDTH 4 0
BBX 2 12 1 0
BITMAP
C0
C0
00
C0
C0
C0
C0
C0
C0
C0
C0
C0
ENDCHAR
STARTCHAR j
ENCODING 106
SWIDTH 238 0
DWIDTH 4 0
BBX 3 15 0 -3
BITMAP
60
60
00
60
60
60
60
60
60
60
60
60
60
60
C0
ENDCHAR
STARTCHAR k
ENCODING 107
SWIDTH 506 0
DWIDTH 8 0
BBX 7 12 1 0
BITMAP
C0
C0
C0
C6
C8
D8
F0
F0
D8
C8
CC
C6
ENDCHAR
STARTCHAR l
ENCODING 108
SWIDTH 242 0
DWIDTH 4 0
BBX 2 12 1 0
BITMAP
C0
C0
C0
C0
C0
C0
C0
C0
C0
C0
C0
C0
ENDCHAR
STARTCHAR m
ENCODING 109
SWIDTH 876 0
DWIDTH 14 0
BBX 12 9 1 0
BITMAP
BDE0
C630
C630
C630
C630
C630
C630
C630
C630
ENDCHAR
STARTCHAR n
ENCODING 110
SWIDTH 551 0
DWIDTH 9 0
BBX 7 9 1 0
BITMAP
FC
C6
C6
C6
C6
C6
C6
C6
C6
ENDCHAR
STARTCHAR o
ENCODING 111
SWIDTH 570 0
DWIDTH 9 0
BBX 7 9 1 0
BITMAP
38
44
82
82
82
82
82
46
38
ENDCHAR
STARTCHAR p
ENCODING 112
SWIDTH 561 0
DWIDTH 9 0
BBX 7 12 1 -3
BITMAP
BC
C6
C6
C2
C2
C2
C6
C6
FC
C0
C0
C0
ENDCHAR
STARTCHAR q
ENCODING 113
SWIDTH 568 0
DWIDTH 9 0
BBX 7 12 1 -3
BITMAP
7E
C6
86
86
86
86
86
C6
7E
06
06
06
ENDCHAR
STARTCHAR r
ENCODING 114
SWIDTH 338 0
DWIDTH 5 0
BBX 4 9 1 0
BITMAP
B0
C0
80
80
80
80
80
80
80
ENDCHAR
STARTCHAR s
ENCODING 115
SWIDTH 515 0
DWIDTH 8 0
BBX 6 9 1 0
BITMAP
78
CC
84
C0
78
0C
84
C4
78
ENDCHAR
STARTCHAR t
ENCODING 116
SWIDTH 326 0
DWIDTH 5 0
BBX 5 11 0 0
BITMAP
60
60
F8
60
60
60
60
60
60
20
38
ENDCHAR
STARTCHAR u
ENCODING 117
SWIDTH 551 0
DWIDTH 9 0
BBX 7 9 1 0
BITMAP
C6
C6
C6
C6
C6
C6
C6
C6
7E
ENDCHAR
STARTCHAR v
ENCODING 118
SWIDTH 484 0
DWIDTH 8 0
BBX 8 9 0 0
BITMAP
C3
42
66
24
24
3C
18
18
18
ENDCHAR
STARTCHAR w
ENCODING 119
SWIDTH 751 0
DWIDTH 12 0
BBX 12 9 0 0
BITMAP
C630
4620
4620
6F60
2940
2940
3940
30C0
1080
ENDCHAR
STARTCHAR x
ENCODING 120
SWIDTH 495 0
DWIDTH 8 0
BBX 8 9 0 0
BITMAP
C3
66
2C
18
18
18
2C
66
C3
ENDCHAR
STARTCHAR y
ENCODING 121
SWIDTH 473 0
DWIDTH 8 0
BBX 8 12 0 -3
BITMAP
C3
42
66
24
24
3C
18
18
18
10
10
60
ENDCHAR
STARTCHAR z
ENCODING 122
SWIDTH 495 0
DWIDTH 8 0
BBX 6 9 1 0
BITMAP
FC
0C
18
10
30
60
40
C0
FC
ENDCHAR
STARTCHAR braceleft
ENCODING 123
SWIDTH 338 0
DWIDTH 5 0
BBX 5 15 0 -3
BITMAP
08
10
30
20
20
20
20
C0
20
20
20
20
30
10
08
ENDCHAR
STARTCHAR bar
ENCODING 124
SWIDTH 243 0
DWIDTH 4 0
BBX 2 14 1 -2
BITMAP
C0
C0
C0
C0
C0
C0
C0
C0
C0
C0
C0
C0
C0
C0
ENDCHAR
STARTCHAR braceright
ENCODING 125
SWIDTH 338 0
DWIDTH 5 0
BBX 5 15 0 -3
BITMAP
80
40
60
20
20
20
20
18
20
20
20
20
60
40
80
ENDCHAR
STARTCHAR asciitilde
ENCODING 126
SWIDTH 680 0
DWIDTH 11 0
BBX 9 3 1 3
BITMAP
7080
C980
8700
ENDCHAR
ENDFONT
