STARTFONT 2.1
FONT -FontForge-Roboto Medium-Medium-R-Normal--40-380-75-75-C-230-ISO10646-1
SIZE 38 75 75
FONTBOUNDINGBOX 21 29 1 0
COMMENT "Generated by fontforge, http://fontforge.sourceforge.net"
COMMENT "Copyright 2011 Google Inc. All Rights Reserved."
STARTPROPERTIES 35
FOUNDRY "FontForge"
FAMILY_NAME "Roboto Medium"
WEIGHT_NAME "Medium"
SLANT "R"
SETWIDTH_NAME "Normal"
ADD_STYLE_NAME ""
PIXEL_SIZE 40
POINT_SIZE 380
RESOLUTION_X 75
RESOLUTION_Y 75
SPACING "C"
AVERAGE_WIDTH 230
CHARSET_REGISTRY "ISO10646"
CHARSET_ENCODING "1"
FONTNAME_REGISTRY ""
CHARSET_COLLECTIONS "ISO10646-1"
FONT_NAME "Roboto-Medium"
FACE_NAME "Roboto Medium"
COPYRIGHT "Copyright 2011 Google Inc. All Rights Reserved."
FONT_VERSION "2.137; 2017"
FONT_ASCENT 30
FONT_DESCENT 10
UNDERLINE_POSITION -4
UNDERLINE_THICKNESS 2
RAW_ASCENT 750
RAW_DESCENT 250
RELATIVE_WEIGHT 50
RELATIVE_SETWIDTH 50
SUPERSCRIPT_X 0
SUPERSCRIPT_Y 19
SUPERSCRIPT_SIZE 25
SUBSCRIPT_X 0
SUBSCRIPT_Y 5
SUBSCRIPT_SIZE 25
FIGURE_WIDTH 23
ENDPROPERTIES
CHARS 10
STARTCHAR zero
ENCODING 48
SWIDTH 568 0
DWIDTH 23 0
BBX 19 29 2 0
BITMAP
03F800
0FFE00
1FFF00
3FFF80
3E0F80
7C07C0
7C07C0
7803C0
F803E0
F803E0
F803E0
F803E0
F803E0
F803E0
F803E0
F803E0
F803E0
F803E0
F803E0
F803E0
F803E0
7803C0
7C07C0
7C07C0
3E0F80
3FFF80
1FFF00
0FFE00
03F800
ENDCHAR
STARTCHAR one
ENCODING 49
SWIDTH 568 0
DWIDTH 23 0
BBX 12 29 3 0
BITMAP
0030
01F0
0FF0
3FF0
FFF0
FFF0
F9F0
C1F0
01F0
01F0
01F0
01F0
01F0
01F0
01F0
01F0
01F0
01F0
01F0
01F0
01F0
01F0
01F0
01F0
01F0
01F0
01F0
01F0
01F0
ENDCHAR
STARTCHAR two
ENCODING 50
SWIDTH 568 0
DWIDTH 23 0
BBX 19 29 2 0
BITMAP
03F800
0FFE00
3FFF00
3FFF80
7E1FC0
FC07C0
F807C0
F807C0
F003C0
0007C0
0007C0
000780
000F80
001F00
003F00
003E00
007C00
00F800
01F000
03E000
07C000
0FC000
1F8000
3F0000
7E0000
FFFFE0
FFFFE0
FFFFE0
FFFFE0
ENDCHAR
STARTCHAR three
ENCODING 51
SWIDTH 568 0
DWIDTH 23 0
BBX 19 29 2 0
BITMAP
03F800
0FFE00
3FFF00
7FFF80
7E1F80
FC07C0
F807C0
F807C0
0007C0
0007C0
000780
001F80
03FF00
03FE00
03FE00
03FF00
001F80
0007C0
0007C0
0003C0
0003E0
F003E0
F807C0
F807C0
FE0FC0
7FFF80
3FFF00
1FFE00
03F800
ENDCHAR
STARTCHAR four
ENCODING 52
SWIDTH 568 0
DWIDTH 23 0
BBX 21 29 1 0
BITMAP
000F80
001F80
001F80
003F80
007F80
007F80
00FF80
00FF80
01EF80
03EF80
03CF80
07CF80
078F80
0F0F80
1F0F80
1E0F80
3E0F80
3C0F80
780F80
FFFFF8
FFFFF8
FFFFF8
FFFFF8
000F80
000F80
000F80
000F80
000F80
000F80
ENDCHAR
STARTCHAR five
ENCODING 53
SWIDTH 568 0
DWIDTH 23 0
BBX 18 29 3 0
BITMAP
3FFF80
3FFF80
3FFF80
3FFF80
3C0000
7C0000
7C0000
7C0000
7C0000
780000
79F800
7FFE00
7FFF00
7FFF80
7C1F80
100FC0
0007C0
0007C0
0007C0
0007C0
0007C0
F007C0
F807C0
F80FC0
7E1F80
7FFF80
3FFF00
1FFC00
03F000
ENDCHAR
STARTCHAR six
ENCODING 54
SWIDTH 568 0
DWIDTH 23 0
BBX 19 29 2 0
BITMAP
003E00
00FE00
03FE00
07FE00
0FE000
1F8000
3F0000
3E0000
3C0000
7C0000
7CFC00
7BFF00
7FFF80
7FFFC0
FF0FC0
FC07E0
F803E0
F803E0
F803E0
7801E0
7803E0
7C03E0
7C03E0
3E07C0
3F0FC0
1FFF80
0FFF80
07FE00
01F800
ENDCHAR
STARTCHAR seven
ENCODING 55
SWIDTH 568 0
DWIDTH 23 0
BBX 20 29 1 0
BITMAP
FFFFF0
FFFFF0
FFFFF0
FFFFF0
0001E0
0003E0
0003C0
0007C0
0007C0
000780
000F80
000F00
001F00
001E00
003E00
003E00
007C00
007C00
00F800
00F800
00F000
01F000
01F000
03E000
03E000
07C000
07C000
0F8000
0F8000
ENDCHAR
STARTCHAR eight
ENCODING 56
SWIDTH 568 0
DWIDTH 23 0
BBX 19 29 2 0
BITMAP
03F800
0FFE00
1FFF00
3FFF80
7E0FC0
7C07C0
7C07C0
7C07C0
7C07C0
7C07C0
7C07C0
3E0F80
1FFF00
0FFE00
0FFE00
3FFF00
3E0F80
7C07C0
F803C0
F803E0
F803E0
F803E0
F803E0
7C07C0
7E0FC0
3FFF80
3FFF80
0FFE00
03F800
ENDCHAR
STARTCHAR nine
ENCODING 57
SWIDTH 568 0
DWIDTH 23 0
BBX 18 29 2 0
BITMAP
03F000
0FFC00
1FFE00
3FFF00
7E1F80
7C0F80
F807C0
F807C0
F803C0
F803C0
F803C0
F803C0
F803C0
FC07C0
7E1FC0
7FFFC0
3FFFC0
1FFBC0
07E7C0
0007C0
000780
000F80
000F80
003F00
00FE00
0FFC00
0FF800
0FF000
0F8000
ENDCHAR
ENDFONT
