STARTFONT 2.1
FONT -FontForge-Roboto-Book-R-Normal--12-720-12-12-P-61-ISO10646-1
SIZE 72 12 12
FONTBOUNDINGBOX 10 13 0 -3
COMMENT "Generated by fontforge, http://fontforge.sourceforge.net"
COMMENT "Copyright 2011 Google Inc. All Rights Reserved."
STARTPROPERTIES 40
FOUNDRY "FontForge"
FAMILY_NAME "Roboto"
WEIGHT_NAME "Book"
SLANT "R"
SETWIDTH_NAME "Normal"
ADD_STYLE_NAME ""
PIXEL_SIZE 12
POINT_SIZE 720
RESOLUTION_X 12
RESOLUTION_Y 12
SPACING "P"
AVERAGE_WIDTH 61
CHARSET_REGISTRY "ISO10646"
CHARSET_ENCODING "1"
FONTNAME_REGISTRY ""
CHARSET_COLLECTIONS "ISO10646-1"
FONT_NAME "Roboto-Regular"
FACE_NAME "Roboto"
COPYRIGHT "Copyright 2011 Google Inc. All Rights Reserved."
FONT_VERSION "2.137; 2017"
FONT_ASCENT 9
FONT_DESCENT 3
UNDERLINE_POSITION -1
UNDERLINE_THICKNESS 1
X_HEIGHT 6
CAP_HEIGHT 8
RAW_ASCENT 750
RAW_DESCENT 250
NORM_SPACE 3
RELATIVE_WEIGHT 40
RELATIVE_SETWIDTH 50
SUPERSCRIPT_X 0
SUPERSCRIPT_Y 5
SUPERSCRIPT_SIZE 7
SUBSCRIPT_X 0
SUBSCRIPT_Y 1
SUBSCRIPT_SIZE 7
FIGURE_WIDTH 7
AVG_LOWERCASE_WIDTH 61
AVG_UPPERCASE_WIDTH 76
ENDPROPERTIES
CHARS 96
STARTCHAR glyph1.dup1
ENCODING 0
SWIDTH 0 0
DWIDTH 0 0
BBX 1 1 0 0
BITMAP
00
ENDCHAR
STARTCHAR space
ENCODING 32
SWIDTH 247 0
DWIDTH 3 0
BBX 1 1 0 0
BITMAP
00
ENDCHAR
STARTCHAR exclam
ENCODING 33
SWIDTH 257 0
DWIDTH 3 0
BBX 1 9 1 0
BITMAP
80
80
80
80
80
80
80
00
80
ENDCHAR
STARTCHAR quotedbl
ENCODING 34
SWIDTH 319 0
DWIDTH 4 0
BBX 2 3 1 6
BITMAP
C0
C0
C0
ENDCHAR
STARTCHAR numbersign
ENCODING 35
SWIDTH 615 0
DWIDTH 7 0
BBX 6 9 1 0
BITMAP
2C
28
FC
48
48
FC
50
50
50
ENDCHAR
STARTCHAR dollar
ENCODING 36
SWIDTH 561 0
DWIDTH 7 0
BBX 5 11 1 -1
BITMAP
20
70
88
88
C0
70
18
88
88
70
20
ENDCHAR
STARTCHAR percent
ENCODING 37
SWIDTH 732 0
DWIDTH 9 0
BBX 7 9 1 0
BITMAP
E0
A4
A8
F0
10
2E
2A
4A
0E
ENDCHAR
STARTCHAR ampersand
ENCODING 38
SWIDTH 621 0
DWIDTH 7 0
BBX 6 9 1 0
BITMAP
70
D0
90
70
60
B4
94
88
74
ENDCHAR
STARTCHAR quotesingle
ENCODING 39
SWIDTH 174 0
DWIDTH 2 0
BBX 1 3 1 6
BITMAP
80
80
80
ENDCHAR
STARTCHAR parenleft
ENCODING 40
SWIDTH 341 0
DWIDTH 4 0
BBX 3 13 1 -3
BITMAP
20
40
40
80
80
80
80
80
80
80
40
40
20
ENDCHAR
STARTCHAR parenright
ENCODING 41
SWIDTH 347 0
DWIDTH 4 0
BBX 3 13 0 -3
BITMAP
80
40
40
20
20
20
20
20
20
20
40
40
80
ENDCHAR
STARTCHAR asterisk
ENCODING 42
SWIDTH 430 0
DWIDTH 5 0
BBX 5 5 0 4
BITMAP
20
A8
70
50
50
ENDCHAR
STARTCHAR plus
ENCODING 43
SWIDTH 566 0
DWIDTH 7 0
BBX 6 6 0 1
BITMAP
10
10
FC
10
10
10
ENDCHAR
STARTCHAR comma
ENCODING 44
SWIDTH 196 0
DWIDTH 2 0
BBX 2 3 0 -2
BITMAP
40
40
80
ENDCHAR
STARTCHAR hyphen
ENCODING 45
SWIDTH 275 0
DWIDTH 3 0
BBX 3 1 0 3
BITMAP
E0
ENDCHAR
STARTCHAR period
ENCODING 46
SWIDTH 263 0
DWIDTH 3 0
BBX 1 1 1 0
BITMAP
80
ENDCHAR
STARTCHAR slash
ENCODING 47
SWIDTH 412 0
DWIDTH 5 0
BBX 5 10 0 -1
BITMAP
18
10
10
20
20
20
40
40
40
80
ENDCHAR
STARTCHAR zero
ENCODING 48
SWIDTH 561 0
DWIDTH 7 0
BBX 5 9 1 0
BITMAP
70
98
88
88
88
88
88
98
70
ENDCHAR
STARTCHAR one
ENCODING 49
SWIDTH 561 0
DWIDTH 7 0
BBX 3 9 1 0
BITMAP
20
E0
20
20
20
20
20
20
20
ENDCHAR
STARTCHAR two
ENCODING 50
SWIDTH 561 0
DWIDTH 7 0
BBX 5 9 1 0
BITMAP
70
98
88
08
10
20
40
80
F8
ENDCHAR
STARTCHAR three
ENCODING 51
SWIDTH 561 0
DWIDTH 7 0
BBX 5 9 1 0
BITMAP
70
98
08
18
70
08
08
88
70
ENDCHAR
STARTCHAR four
ENCODING 52
SWIDTH 561 0
DWIDTH 7 0
BBX 6 9 0 0
BITMAP
08
18
18
28
48
48
FC
08
08
ENDCHAR
STARTCHAR five
ENCODING 53
SWIDTH 561 0
DWIDTH 7 0
BBX 5 9 1 0
BITMAP
78
C0
80
F0
88
08
08
88
70
ENDCHAR
STARTCHAR six
ENCODING 54
SWIDTH 561 0
DWIDTH 7 0
BBX 5 9 1 0
BITMAP
30
40
80
F0
88
88
88
88
70
ENDCHAR
STARTCHAR seven
ENCODING 55
SWIDTH 561 0
DWIDTH 7 0
BBX 6 9 0 0
BITMAP
FC
04
08
08
08
10
10
20
20
ENDCHAR
STARTCHAR eight
ENCODING 56
SWIDTH 561 0
DWIDTH 7 0
BBX 5 9 1 0
BITMAP
70
98
88
98
70
88
88
88
70
ENDCHAR
STARTCHAR nine
ENCODING 57
SWIDTH 561 0
DWIDTH 7 0
BBX 5 9 1 0
BITMAP
70
98
88
88
98
68
08
10
60
ENDCHAR
STARTCHAR colon
ENCODING 58
SWIDTH 242 0
DWIDTH 3 0
BBX 1 7 1 0
BITMAP
80
00
00
00
00
00
80
ENDCHAR
STARTCHAR semicolon
ENCODING 59
SWIDTH 211 0
DWIDTH 3 0
BBX 2 9 0 -2
BITMAP
40
00
00
00
00
00
40
40
80
ENDCHAR
STARTCHAR less
ENCODING 60
SWIDTH 508 0
DWIDTH 6 0
BBX 5 5 0 2
BITMAP
08
30
C0
30
08
ENDCHAR
STARTCHAR equal
ENCODING 61
SWIDTH 548 0
DWIDTH 7 0
BBX 5 3 1 2
BITMAP
F8
00
F8
ENDCHAR
STARTCHAR greater
ENCODING 62
SWIDTH 522 0
DWIDTH 6 0
BBX 5 5 1 2
BITMAP
80
60
18
70
80
ENDCHAR
STARTCHAR question
ENCODING 63
SWIDTH 472 0
DWIDTH 6 0
BBX 5 9 0 0
BITMAP
70
48
88
08
10
20
20
00
20
ENDCHAR
STARTCHAR at
ENCODING 64
SWIDTH 897 0
DWIDTH 11 0
BBX 9 11 1 -3
BITMAP
1E00
6100
4C80
9480
A480
A480
A480
9B00
8000
4000
3C00
ENDCHAR
STARTCHAR A
ENCODING 65
SWIDTH 652 0
DWIDTH 8 0
BBX 8 9 0 0
BITMAP
18
18
18
24
24
24
7E
42
C3
ENDCHAR
STARTCHAR B
ENCODING 66
SWIDTH 622 0
DWIDTH 7 0
BBX 6 9 1 0
BITMAP
F8
88
8C
88
F0
8C
84
8C
F8
ENDCHAR
STARTCHAR C
ENCODING 67
SWIDTH 650 0
DWIDTH 8 0
BBX 6 9 1 0
BITMAP
78
C4
84
80
80
80
84
C4
78
ENDCHAR
STARTCHAR D
ENCODING 68
SWIDTH 655 0
DWIDTH 8 0
BBX 6 9 1 0
BITMAP
F0
88
84
84
84
84
84
88
F0
ENDCHAR
STARTCHAR E
ENCODING 69
SWIDTH 568 0
DWIDTH 7 0
BBX 5 9 1 0
BITMAP
F8
80
80
80
F8
80
80
80
F8
ENDCHAR
STARTCHAR F
ENCODING 70
SWIDTH 552 0
DWIDTH 7 0
BBX 5 9 1 0
BITMAP
F8
80
80
80
F8
80
80
80
80
ENDCHAR
STARTCHAR G
ENCODING 71
SWIDTH 681 0
DWIDTH 8 0
BBX 6 9 1 0
BITMAP
78
C4
84
80
9C
84
84
C4
78
ENDCHAR
STARTCHAR H
ENCODING 72
SWIDTH 712 0
DWIDTH 9 0
BBX 7 9 1 0
BITMAP
86
86
86
86
FE
86
86
86
86
ENDCHAR
STARTCHAR I
ENCODING 73
SWIDTH 271 0
DWIDTH 3 0
BBX 1 9 1 0
BITMAP
80
80
80
80
80
80
80
80
80
ENDCHAR
STARTCHAR J
ENCODING 74
SWIDTH 551 0
DWIDTH 7 0
BBX 6 9 0 0
BITMAP
04
04
04
04
04
04
04
C8
78
ENDCHAR
STARTCHAR K
ENCODING 75
SWIDTH 626 0
DWIDTH 8 0
BBX 7 9 1 0
BITMAP
84
88
90
A0
E0
90
98
88
86
ENDCHAR
STARTCHAR L
ENCODING 76
SWIDTH 538 0
DWIDTH 6 0
BBX 5 9 1 0
BITMAP
80
80
80
80
80
80
80
80
F8
ENDCHAR
STARTCHAR M
ENCODING 77
SWIDTH 873 0
DWIDTH 10 0
BBX 8 9 1 0
BITMAP
C1
C3
C3
A3
A5
B5
95
99
89
ENDCHAR
STARTCHAR N
ENCODING 78
SWIDTH 712 0
DWIDTH 9 0
BBX 7 9 1 0
BITMAP
C2
C2
A2
B2
92
8A
8A
86
86
ENDCHAR
STARTCHAR O
ENCODING 79
SWIDTH 687 0
DWIDTH 8 0
BBX 7 9 1 0
BITMAP
78
C4
84
86
86
86
84
C4
78
ENDCHAR
STARTCHAR P
ENCODING 80
SWIDTH 630 0
DWIDTH 8 0
BBX 6 9 1 0
BITMAP
F8
84
84
84
F8
80
80
80
80
ENDCHAR
STARTCHAR Q
ENCODING 81
SWIDTH 687 0
DWIDTH 8 0
BBX 6 10 1 -1
BITMAP
78
CC
84
84
84
84
84
CC
78
04
ENDCHAR
STARTCHAR R
ENCODING 82
SWIDTH 615 0
DWIDTH 7 0
BBX 6 9 1 0
BITMAP
F8
88
8C
88
F8
90
88
88
84
ENDCHAR
STARTCHAR S
ENCODING 83
SWIDTH 593 0
DWIDTH 7 0
BBX 7 9 0 0
BITMAP
38
44
46
60
38
04
C6
44
3C
ENDCHAR
STARTCHAR T
ENCODING 84
SWIDTH 596 0
DWIDTH 7 0
BBX 7 9 0 0
BITMAP
FE
10
10
10
10
10
10
10
10
ENDCHAR
STARTCHAR U
ENCODING 85
SWIDTH 648 0
DWIDTH 8 0
BBX 6 9 1 0
BITMAP
84
84
84
84
84
84
84
CC
78
ENDCHAR
STARTCHAR V
ENCODING 86
SWIDTH 636 0
DWIDTH 8 0
BBX 8 9 0 0
BITMAP
C3
42
42
24
24
24
18
18
18
ENDCHAR
STARTCHAR W
ENCODING 87
SWIDTH 887 0
DWIDTH 11 0
BBX 10 9 0 0
BITMAP
C440
4440
4A40
4A40
4A80
3280
3180
3180
3100
ENDCHAR
STARTCHAR X
ENCODING 88
SWIDTH 626 0
DWIDTH 8 0
BBX 7 9 0 0
BITMAP
C2
64
2C
18
10
38
2C
64
C2
ENDCHAR
STARTCHAR Y
ENCODING 89
SWIDTH 600 0
DWIDTH 7 0
BBX 7 9 0 0
BITMAP
C2
44
64
28
38
10
10
10
10
ENDCHAR
STARTCHAR Z
ENCODING 90
SWIDTH 598 0
DWIDTH 7 0
BBX 7 9 0 0
BITMAP
7E
04
08
08
10
20
20
40
FE
ENDCHAR
STARTCHAR bracketleft
ENCODING 91
SWIDTH 265 0
DWIDTH 3 0
BBX 2 12 1 -2
BITMAP
C0
80
80
80
80
80
80
80
80
80
80
C0
ENDCHAR
STARTCHAR backslash
ENCODING 92
SWIDTH 410 0
DWIDTH 5 0
BBX 5 10 0 -1
BITMAP
80
40
40
60
20
20
10
10
10
08
ENDCHAR
STARTCHAR bracketright
ENCODING 93
SWIDTH 265 0
DWIDTH 3 0
BBX 2 12 0 -2
BITMAP
C0
40
40
40
40
40
40
40
40
40
40
C0
ENDCHAR
STARTCHAR asciicircum
ENCODING 94
SWIDTH 417 0
DWIDTH 5 0
BBX 5 4 0 5
BITMAP
20
50
50
D8
ENDCHAR
STARTCHAR underscore
ENCODING 95
SWIDTH 451 0
DWIDTH 5 0
BBX 5 1 0 -1
BITMAP
F8
ENDCHAR
STARTCHAR grave
ENCODING 96
SWIDTH 309 0
DWIDTH 4 0
BBX 3 2 0 7
BITMAP
C0
60
ENDCHAR
STARTCHAR a
ENCODING 97
SWIDTH 543 0
DWIDTH 7 0
BBX 5 7 1 0
BITMAP
70
88
08
78
88
88
78
ENDCHAR
STARTCHAR b
ENCODING 98
SWIDTH 561 0
DWIDTH 7 0
BBX 5 9 1 0
BITMAP
80
80
F0
88
88
88
88
88
F0
ENDCHAR
STARTCHAR c
ENCODING 99
SWIDTH 523 0
DWIDTH 6 0
BBX 6 7 0 0
BITMAP
38
4C
C0
80
C0
4C
38
ENDCHAR
STARTCHAR d
ENCODING 100
SWIDTH 563 0
DWIDTH 7 0
BBX 5 9 1 0
BITMAP
08
08
78
88
88
88
88
88
78
ENDCHAR
STARTCHAR e
ENCODING 101
SWIDTH 529 0
DWIDTH 6 0
BBX 6 7 0 0
BITMAP
38
48
C4
FC
80
48
3C
ENDCHAR
STARTCHAR f
ENCODING 102
SWIDTH 347 0
DWIDTH 4 0
BBX 4 9 0 0
BITMAP
30
40
F0
40
40
40
40
40
40
ENDCHAR
STARTCHAR g
ENCODING 103
SWIDTH 561 0
DWIDTH 7 0
BBX 5 9 1 -2
BITMAP
78
88
88
88
88
88
78
08
F0
ENDCHAR
STARTCHAR h
ENCODING 104
SWIDTH 550 0
DWIDTH 7 0
BBX 5 9 1 0
BITMAP
80
80
B0
C8
88
88
88
88
88
ENDCHAR
STARTCHAR i
ENCODING 105
SWIDTH 242 0
DWIDTH 3 0
BBX 1 9 1 0
BITMAP
80
00
80
80
80
80
80
80
80
ENDCHAR
STARTCHAR j
ENCODING 106
SWIDTH 238 0
DWIDTH 3 0
BBX 2 11 0 -2
BITMAP
40
00
40
40
40
40
40
40
40
40
C0
ENDCHAR
STARTCHAR k
ENCODING 107
SWIDTH 506 0
DWIDTH 6 0
BBX 5 9 1 0
BITMAP
80
80
98
B0
E0
E0
A0
90
98
ENDCHAR
STARTCHAR l
ENCODING 108
SWIDTH 242 0
DWIDTH 3 0
BBX 1 9 1 0
BITMAP
80
80
80
80
80
80
80
80
80
ENDCHAR
STARTCHAR m
ENCODING 109
SWIDTH 876 0
DWIDTH 11 0
BBX 9 7 1 0
BITMAP
F700
8880
8880
8880
8880
8880
8880
ENDCHAR
STARTCHAR n
ENCODING 110
SWIDTH 551 0
DWIDTH 7 0
BBX 5 7 1 0
BITMAP
B0
C8
88
88
88
88
88
ENDCHAR
STARTCHAR o
ENCODING 111
SWIDTH 570 0
DWIDTH 7 0
BBX 5 7 1 0
BITMAP
70
88
88
88
88
88
70
ENDCHAR
STARTCHAR p
ENCODING 112
SWIDTH 561 0
DWIDTH 7 0
BBX 5 9 1 -2
BITMAP
F0
88
88
88
88
88
F0
80
80
ENDCHAR
STARTCHAR q
ENCODING 113
SWIDTH 568 0
DWIDTH 7 0
BBX 5 9 1 -2
BITMAP
78
88
88
88
88
88
78
08
08
ENDCHAR
STARTCHAR r
ENCODING 114
SWIDTH 338 0
DWIDTH 4 0
BBX 3 7 1 0
BITMAP
E0
80
80
80
80
80
80
ENDCHAR
STARTCHAR s
ENCODING 115
SWIDTH 515 0
DWIDTH 6 0
BBX 5 7 0 0
BITMAP
78
48
40
38
08
C8
78
ENDCHAR
STARTCHAR t
ENCODING 116
SWIDTH 326 0
DWIDTH 4 0
BBX 4 9 0 0
BITMAP
40
40
F0
40
40
40
40
40
30
ENDCHAR
STARTCHAR u
ENCODING 117
SWIDTH 551 0
DWIDTH 7 0
BBX 5 7 1 0
BITMAP
88
88
88
88
88
88
78
ENDCHAR
STARTCHAR v
ENCODING 118
SWIDTH 484 0
DWIDTH 6 0
BBX 6 7 0 0
BITMAP
CC
48
48
48
30
30
30
ENDCHAR
STARTCHAR w
ENCODING 119
SWIDTH 751 0
DWIDTH 9 0
BBX 9 7 0 0
BITMAP
8880
4900
5500
5500
5500
2200
2200
ENDCHAR
STARTCHAR x
ENCODING 120
SWIDTH 495 0
DWIDTH 6 0
BBX 6 7 0 0
BITMAP
CC
48
30
30
30
48
CC
ENDCHAR
STARTCHAR y
ENCODING 121
SWIDTH 473 0
DWIDTH 6 0
BBX 6 9 0 -2
BITMAP
CC
48
48
30
30
30
20
20
60
ENDCHAR
STARTCHAR z
ENCODING 122
SWIDTH 495 0
DWIDTH 6 0
BBX 5 7 1 0
BITMAP
F0
10
20
60
40
80
F8
ENDCHAR
STARTCHAR braceleft
ENCODING 123
SWIDTH 338 0
DWIDTH 4 0
BBX 4 11 0 -2
BITMAP
10
20
20
20
60
C0
60
20
20
20
10
ENDCHAR
STARTCHAR bar
ENCODING 124
SWIDTH 243 0
DWIDTH 3 0
BBX 1 11 1 -2
BITMAP
80
80
80
80
80
80
80
80
80
80
80
ENDCHAR
STARTCHAR braceright
ENCODING 125
SWIDTH 338 0
DWIDTH 4 0
BBX 4 11 0 -2
BITMAP
80
40
40
40
60
30
60
40
40
40
80
ENDCHAR
STARTCHAR asciitilde
ENCODING 126
SWIDTH 680 0
DWIDTH 8 0
BBX 6 2 1 3
BITMAP
E4
9C
ENDCHAR
ENDFONT
